<?xml version="1.0" standalone="no"?>
<!DOCTYPE svg PUBLIC "-//W3C//DTD SVG 1.1//EN" "http://www.w3.org/Graphics/SVG/1.1/DTD/svg11.dtd" >
<svg xmlns="http://www.w3.org/2000/svg" xmlns:xlink="http://www.w3.org/1999/xlink" version="1.1">
<metadata>
Created by FontForge 20200427 at Thu May  5 17:59:43 2011
 By www
Copyright (c) 2008 Linotype GmbH, www.linotype.com. All rights reserved. This font software may not be reproduced, modified, disclosed or transferred without the express written approval of Linotype GmbH. Aptifer is a trademark of Linotype GmbH and may be registered in certain jurisdictions. This typeface is original artwork of Marten Thavenius. The design may be protected in certain jurisdictions.
</metadata>
<defs>
<font id="AptiferSlabLTW01-Medium" horiz-adv-x="524" >
  <font-face 
    font-family="AptiferSlabLTW01-Medium"
    font-weight="400"
    font-stretch="normal"
    units-per-em="1000"
    panose-1="2 4 6 3 3 4 3 2 2 4"
    ascent="750"
    descent="-250"
    x-height="496"
    cap-height="680"
    bbox="-22 -228 1125 917"
    underline-thickness="50"
    underline-position="-150"
    unicode-range="U+0020-E011"
  />
<missing-glyph horiz-adv-x="231" 
 />
    <glyph glyph-name=".notdef" horiz-adv-x="231" 
 />
    <glyph glyph-name="glyph1" horiz-adv-x="0" 
 />
    <glyph glyph-name="glyph2" horiz-adv-x="0" 
 />
    <glyph glyph-name="space" unicode=" " horiz-adv-x="231" 
 />
    <glyph glyph-name="exclam" unicode="!" horiz-adv-x="261" 
d="M185 680v-172l-19 -317h-72l-19 317v172h110zM64 58q0 29 19 49t47 20t47 -20t19 -49t-19 -49t-47 -20t-47 20t-19 49z" />
    <glyph glyph-name="quotedbl" unicode="&#x22;" horiz-adv-x="336" 
d="M46 632v88h79v-88l-13 -154h-53zM211 632v88h79v-88l-13 -154h-53z" />
    <glyph glyph-name="numbersign" unicode="#" 
d="M61 497h90l20 160h68l-20 -160h127l20 160h68l-20 -160h79v-67h-88l-22 -179h80v-67h-90l-23 -184h-68l23 184h-128l-22 -184h-68l22 184h-79v67h89l22 179h-80v67zM187 251h128l22 179h-128z" />
    <glyph glyph-name="dollar" unicode="$" 
d="M456 199q0 -39 -12 -70t-33 -54t-49 -37.5t-61 -20.5v-107h-76v104q-40 2 -77.5 10.5t-82.5 24.5v144h69l14 -81q20 -8 46 -13t56 -5q43 0 73 26t30 72q0 77 -97 106q-32 9 -64 22.5t-57 34t-40.5 50.5t-15.5 73q0 35 12.5 64t33.5 50.5t48 34.5t57 16v100h75v-97
q31 -3 53.5 -8.5t53.5 -16.5v-133h-68l-14 73q-11 5 -28 7t-28 2q-46 0 -70 -25.5t-24 -60.5q0 -21 8 -35.5t22 -25t33 -18.5t42 -15q33 -10 63.5 -25t54.5 -37.5t38.5 -54t14.5 -74.5z" />
    <glyph glyph-name="percent" unicode="%" horiz-adv-x="799" 
d="M321 463q0 -97 -36 -149.5t-111 -52.5t-111 52.5t-36 149.5q0 96 36.5 149t109.5 53q75 0 111.5 -53t36.5 -149zM245 463q0 66 -17 102t-54 36q-36 0 -53 -36t-17 -102q0 -67 16.5 -102.5t53.5 -35.5q38 0 54.5 35.5t16.5 102.5zM265 -11h-69l337 679h70zM772 194
q0 -97 -36 -149.5t-111 -52.5t-111 52.5t-36 149.5q0 96 36.5 149t109.5 53q75 0 111.5 -53t36.5 -149zM696 194q0 66 -17 102t-54 36q-36 0 -53 -36t-17 -102q0 -67 16.5 -102.5t53.5 -35.5q38 0 54.5 35.5t16.5 102.5z" />
    <glyph glyph-name="ampersand" unicode="&#x26;" horiz-adv-x="686" 
d="M511 0q-13 15 -30 35t-32 40q-19 -17 -43 -32.5t-50.5 -27.5t-54 -19t-53.5 -7q-45 0 -84.5 10.5t-69.5 32.5t-47.5 56.5t-17.5 83.5q0 32 15.5 63.5t40.5 59t56.5 50.5t63.5 39q-17 23 -31 42.5t-23.5 38t-14.5 36.5t-5 38q0 37 15.5 65.5t40.5 48t55 29t60 9.5
q37 0 69.5 -10.5t56.5 -30.5t37.5 -48.5t13.5 -64.5q0 -27 -13.5 -52.5t-34.5 -48t-47.5 -42t-52.5 -36.5q11 -15 28 -37t35.5 -45t36.5 -45t31 -38q22 28 42 58t34 58h120v-61l-78 -13q-13 -23 -30.5 -51t-35.5 -49q12 -17 23.5 -31t22.5 -28l84 -14v-62h-133zM225 537
q0 -28 14.5 -57t41.5 -62q19 11 38 24.5t34 28.5t24.5 31.5t9.5 33.5q0 35 -24.5 55t-58.5 20q-15 0 -29 -5.5t-25.5 -15.5t-18 -23.5t-6.5 -29.5zM395 137q-48 63 -86 112t-54 71q-22 -12 -44.5 -28.5t-41 -36t-30 -41t-11.5 -42.5q0 -23 9 -42t25 -32.5t37 -20.5t44 -7
q16 0 37 5t42 14t40 21t33 27z" />
    <glyph glyph-name="quotesingle" unicode="'" horiz-adv-x="171" 
d="M46 632v88h79v-88l-13 -154h-53z" />
    <glyph glyph-name="parenleft" unicode="(" horiz-adv-x="329" 
d="M95 280q0 72 13 135t35.5 117.5t52.5 101t63 86.5l60 -41q-29 -44 -53.5 -88.5t-42 -92.5t-27.5 -101.5t-10 -116.5t10 -117t27.5 -102t42 -92t53.5 -88l-60 -41q-33 39 -63 85.5t-52.5 101.5t-35.5 118t-13 135z" />
    <glyph glyph-name="parenright" unicode=")" horiz-adv-x="329" 
d="M234 280q0 -72 -13 -135t-35.5 -118t-52.5 -101.5t-63 -85.5l-60 41q29 44 53.5 88t42 92t27.5 102t10 117t-10 116.5t-27.5 101.5t-42 92.5t-53.5 88.5l60 41q33 -40 63 -86.5t52.5 -101t35.5 -117.5t13 -135z" />
    <glyph glyph-name="asterisk" unicode="*" horiz-adv-x="433" 
d="M52 603l42 -14l95 -46l2 2l-14 105v43h79v-43l-14 -105l2 -2l95 46l42 14l25 -76l-42 -13l-104 -19l-1 -2l73 -77l26 -35l-64 -47l-26 36l-51 92h-2l-50 -92l-26 -36l-64 47l26 35l73 77l-1 2l-104 19l-41 13z" />
    <glyph glyph-name="plus" unicode="+" 
d="M297 243v-189h-71v189h-186v71h186v184h71v-184h187v-71h-187z" />
    <glyph glyph-name="comma" unicode="," horiz-adv-x="228" 
d="M171 139q1 -4 1 -10v-10q0 -29 -7.5 -61.5t-21.5 -65t-33 -62t-41 -53.5l-53 13q12 23 22 50.5t17.5 55.5t12 55t4.5 50v12t-1 12l100 14v0z" />
    <glyph glyph-name="hyphen" unicode="-" horiz-adv-x="330" 
d="M33 313h264v-71h-264v71z" />
    <glyph glyph-name="period" unicode="." horiz-adv-x="228" 
d="M48 58q0 29 19 49t47 20t47 -20t19 -49t-19 -49t-47 -20t-47 20t-19 49z" />
    <glyph glyph-name="slash" unicode="/" horiz-adv-x="378" 
d="M384 762l-312 -816h-77l311 816h78z" />
    <glyph glyph-name="zero" unicode="0" 
d="M490 328q0 -163 -56 -251t-172 -88t-172.5 88t-56.5 251q0 162 57 251t171 89t171.5 -89.5t57.5 -250.5zM382 328q0 120 -28.5 184t-91.5 64t-91.5 -64t-28.5 -184q0 -121 28 -184t92 -63t92 63t28 184z" />
    <glyph glyph-name="one" unicode="1" 
d="M131 0v61l98 14v484l-2 1l-116 -63l-28 67l162 93h90v-582l91 -14v-61h-295z" />
    <glyph glyph-name="two" unicode="2" 
d="M53 0v47q0 81 24.5 138t62.5 100q29 32 64 54.5t65.5 43.5t51 46t20.5 61q0 16 -4.5 31.5t-16.5 27.5t-32 19t-50 7q-22 0 -40.5 -4.5t-39.5 -15.5l-14 -77h-69v144q25 12 46.5 20.5t43.5 14t44.5 7.5t48.5 2q93 0 142.5 -46t49.5 -128q0 -52 -19.5 -86.5t-48.5 -60
t-61.5 -46.5t-59.5 -45q-36 -32 -65.5 -71t-33.5 -92v-2h224l14 82h69v-171h-416z" />
    <glyph glyph-name="three" unicode="3" 
d="M450 213q0 -54 -22 -95t-60 -69.5t-88.5 -43t-107.5 -14.5q-30 0 -57.5 4.5t-57.5 14.5l19 88q27 -8 49.5 -12t44.5 -4q31 0 62 7.5t55.5 23.5t39.5 41.5t15 61.5q0 44 -28 72t-70 28l-41 -5l-11 70q68 11 95 39.5t27 78.5q0 22 -8 37t-21 24t-29.5 13t-32.5 4
q-23 0 -42.5 -6.5t-39.5 -20.5l-14 -75h-69v130q45 30 83.5 45.5t88.5 15.5q40 0 74 -8.5t59.5 -27t40 -47.5t14.5 -69q0 -56 -21.5 -92.5t-56.5 -52.5v-2q47 -11 78.5 -51.5t31.5 -102.5z" />
    <glyph glyph-name="four" unicode="4" 
d="M423 153v-80l82 -14v-59h-267v59l82 14v80h-293v73l239 431h114l-160 -287q-18 -35 -40.5 -71.5t-36.5 -55.5v-2h177v147h103v-147h64v-88h-64z" />
    <glyph glyph-name="five" unicode="5" 
d="M473 226q0 -48 -20.5 -90.5t-57.5 -75t-88 -51t-112 -18.5q-23 0 -40 0.5t-33 2.5t-33 6t-40 10l24 89q22 -5 38 -8.5t29 -5.5t25.5 -2.5t26.5 -0.5q33 0 64 11t55 30t39 45t15 57q0 21 -5 41t-17 35.5t-32.5 24.5t-52.5 9q-29 0 -55.5 -11.5t-57.5 -33.5l-73 46l42 321
h304v-89h-213l-25 -184h2q26 20 52 27t60 7q47 0 81 -15t55.5 -41t32 -61t10.5 -75z" />
    <glyph glyph-name="six" unicode="6" 
d="M487 213q0 -47 -15.5 -87.5t-44.5 -70.5t-69.5 -47.5t-89.5 -17.5t-90 18t-70.5 50t-46 75.5t-16.5 94.5q0 83 20 162.5t64.5 141t115.5 99t173 37.5v-87q-54 0 -98.5 -20.5t-77 -53t-53 -73t-26.5 -80.5h2q24 34 58 51.5t71 17.5q42 0 77.5 -14t61 -41t40 -66t14.5 -89z
M378 213q0 62 -30 96t-75 34q-15 0 -32 -5.5t-33 -16t-29.5 -26.5t-21.5 -38q-2 -8 -3 -20t-1 -21q0 -61 32 -100t83 -39q24 0 44.5 11t35 29.5t22.5 43t8 52.5z" />
    <glyph glyph-name="seven" unicode="7" 
d="M459 575q-90 -131 -138.5 -273t-48.5 -302h-106q0 84 14 162.5t38 150t56 135.5t69 118v2h-198l-15 -81h-69v170h398v-82v0z" />
    <glyph glyph-name="eight" unicode="8" 
d="M474 170q0 -38 -15 -70.5t-42.5 -57.5t-66.5 -39t-87 -14t-87.5 14t-67.5 38.5t-43.5 57t-15.5 70.5q0 39 11.5 68t30.5 50t42.5 35.5t46.5 24.5v2q-18 10 -35.5 24t-32 32.5t-23.5 42t-9 54.5q0 33 13 63t37.5 53t59 36.5t76.5 13.5t76.5 -13.5t59.5 -36t38.5 -52
t13.5 -60.5q0 -63 -31 -102.5t-73 -57.5v-2q19 -8 40.5 -22t40 -35t31 -50t12.5 -67zM361 499q0 14 -5.5 29.5t-17 28.5t-29.5 21.5t-43 8.5q-24 0 -41 -9t-27.5 -22.5t-15.5 -29t-5 -29.5q0 -23 8.5 -41.5t23 -33.5t32.5 -26t38 -19q39 17 60.5 46t21.5 76zM371 172
q0 29 -11 51.5t-29 39t-41 28.5t-46 21q-46 -23 -69.5 -55t-23.5 -86q0 -17 7.5 -34.5t22 -31.5t35.5 -23.5t48 -9.5q25 0 45 9.5t34 24t21 32t7 34.5z" />
    <glyph glyph-name="nine" unicode="9" 
d="M478 432q0 -89 -20 -169.5t-65.5 -141t-120.5 -96.5t-185 -36v87q64 0 112 19.5t82 51.5t54 73.5t27 85.5h-2q-50 -65 -127 -65q-43 0 -79 13t-62.5 39t-41.5 64t-15 89q0 46 15 86.5t43.5 70.5t68 47t89.5 17t91.5 -17t71.5 -47.5t47 -74t17 -96.5zM370 443
q0 61 -33.5 99.5t-85.5 38.5q-24 0 -44 -10.5t-34 -28.5t-21.5 -42t-7.5 -52q0 -31 8.5 -54.5t23.5 -39.5t35 -24t42 -8q15 0 31 4.5t31.5 14.5t28 25.5t20.5 36.5q2 9 4 19.5t2 20.5z" />
    <glyph glyph-name="colon" unicode=":" horiz-adv-x="228" 
d="M48 412q0 29 19 49t47 20t47 -20t19 -49t-19 -49t-47 -20t-47 20t-19 49zM48 58q0 29 19 49t47 20t47 -20t19 -49t-19 -49t-47 -20t-47 20t-19 49z" />
    <glyph glyph-name="semicolon" unicode=";" horiz-adv-x="239" 
d="M181 138q1 -5 1 -10.5v-10.5q0 -29 -7.5 -61t-21 -64t-32.5 -61.5t-41 -53.5l-53 13q12 23 22 50.5t17.5 56t11.5 55.5t4 50v12t-1 12zM57 412q0 29 19 49t47 20t47 -20t19 -49t-19 -49t-47 -20t-47 20t-19 49z" />
    <glyph glyph-name="less" unicode="&#x3c;" 
d="M50 242v73l424 217v-75l-353 -178v-2l353 -177v-76z" />
    <glyph glyph-name="equal" unicode="=" 
d="M40 228h444v-71h-444v71zM40 400h444v-71h-444v71z" />
    <glyph glyph-name="greater" unicode="&#x3e;" 
d="M50 24v76l352 177v2l-352 178v75l424 -217v-73z" />
    <glyph glyph-name="question" unicode="?" horiz-adv-x="417" 
d="M131 191v72q0 28 10.5 50t26 40.5t34 36t34 36t26 39.5t10.5 48q0 38 -23.5 61t-64.5 23q-14 0 -30.5 -2.5t-29.5 -7.5l-14 -81h-68v157q26 9 66 17.5t74 8.5q96 0 147 -45t51 -123q0 -37 -12 -66.5t-29.5 -53t-38.5 -42.5t-38.5 -36.5t-29.5 -34t-12 -35.5v-62h-89z
M110 58q0 29 19 49t47 20t47 -20t19 -49t-19 -49t-47 -20t-47 20t-19 49z" />
    <glyph glyph-name="at" unicode="@" horiz-adv-x="830" 
d="M598 -87q-83 -26 -181 -26q-87 0 -155 26t-114.5 74t-71 116.5t-24.5 152.5q0 81 32 152.5t87 125t128.5 85t155.5 31.5q74 0 133.5 -21.5t101.5 -62t65 -99.5t23 -134q0 -71 -19.5 -122.5t-51 -84.5t-70 -48.5t-75.5 -15.5q-27 0 -53 14.5t-37 44.5h-2
q-17 -24 -46 -41.5t-71 -17.5q-30 0 -54 12t-40.5 34t-25.5 51t-9 64q0 54 17.5 100.5t51 80t81.5 52.5t110 19q29 0 56.5 -7.5t50.5 -16.5l-49 -272q0 -26 11.5 -34t30.5 -8q21 0 42 12.5t37.5 37.5t26.5 60.5t10 82.5q0 125 -63.5 187t-181.5 62q-66 0 -125 -26
t-102.5 -70.5t-69 -103.5t-25.5 -124q0 -68 18.5 -123.5t54.5 -94.5t89 -60.5t122 -21.5q90 0 162 18zM502 397q-9 3 -15 4t-16 1q-33 0 -62.5 -12t-51.5 -34.5t-34.5 -54t-12.5 -70.5q0 -51 17 -72.5t53 -21.5q32 0 57 20t30 46z" />
    <glyph glyph-name="A" unicode="A" horiz-adv-x="665" 
d="M271 680h125l189 -604l74 -15v-61h-254v64l77 11l-34 112h-233l-34 -112l77 -11v-64h-252v61l74 14zM426 269l-28 93q-10 34 -20.5 69.5t-19.5 67l-16 56t-10 38.5h-2q-4 -17 -11 -43.5t-16 -58t-19 -65.5t-20 -65l-28 -92h190z" />
    <glyph glyph-name="B" unicode="B" horiz-adv-x="624" 
d="M120 605l-82 14v61h308q48 0 86 -13t64.5 -36t40.5 -54.5t14 -68.5q0 -45 -20 -77.5t-54 -57.5v-2q51 -26 81.5 -68t30.5 -102q0 -44 -13 -81t-39.5 -63.5t-66 -41.5t-93.5 -15h-339v61l82 14v530zM226 403h124q24 0 42.5 8.5t31 22t19 31.5t6.5 37q0 42 -29 68.5
t-80 26.5h-114v-194zM226 89h141q55 0 84.5 32t29.5 86q0 50 -33 81.5t-84 31.5h-138v-231z" />
    <glyph glyph-name="C" unicode="C" horiz-adv-x="548" 
d="M43 340q0 82 24.5 146.5t68 109.5t103 69t129.5 24q42 0 71.5 -6.5t60.5 -17.5v-154h-69l-14 80q-14 4 -25.5 5.5t-28.5 1.5q-43 0 -81.5 -17.5t-67.5 -50.5t-46 -81t-17 -109q0 -121 51 -189.5t142 -68.5q39 0 72 6t71 19l26 -87q-20 -7 -39 -12.5t-39 -9t-42 -5.5
t-49 -2q-70 0 -125.5 24t-94.5 69t-60 109.5t-21 146.5z" />
    <glyph glyph-name="D" unicode="D" horiz-adv-x="671" 
d="M629 343q0 -81 -21 -144.5t-61 -108t-96.5 -67.5t-126.5 -23h-286v61l82 14v530l-82 14v61h290q66 0 121 -22.5t95 -65.5t62.5 -106t22.5 -143zM520 340q0 60 -14.5 106.5t-40.5 78.5t-62.5 49t-80.5 17h-96v-502h96q45 0 81.5 16.5t62.5 48.5t40 79t14 107z" />
    <glyph glyph-name="E" unicode="E" horiz-adv-x="591" 
d="M38 0v61l82 14v530l-82 14v61h487v-154h-68l-13 66h-218v-197h190l12 49h60v-184h-60l-12 52h-190v-223h239l12 74h68v-163h-507z" />
    <glyph glyph-name="F" unicode="F" horiz-adv-x="544" 
d="M226 592v-215h173l11 52h60v-189h-60l-11 53h-173v-218l88 -14v-61h-276v61l82 14v530l-82 14v61h472v-156h-68l-13 68h-203z" />
    <glyph glyph-name="G" unicode="G" horiz-adv-x="650" 
d="M501 0l-14 55h-2q-29 -26 -70.5 -46t-86.5 -20q-139 0 -212 89t-73 260q0 81 23.5 145.5t66.5 110.5t103 70.5t133 24.5q56 0 94 -8.5t73 -21.5v-152h-69l-14 78q-37 13 -84 13t-87 -18.5t-69 -52.5t-45.5 -82t-16.5 -107q0 -124 46 -190.5t139 -66.5q36 0 73 15t62 35
v117l-81 14v61h244v-62l-66 -13v-248h-67z" />
    <glyph glyph-name="H" unicode="H" horiz-adv-x="735" 
d="M436 0v61l74 14v227h-284v-227l73 -14v-61h-261v61l82 14v530l-82 14v61h261v-61l-73 -14v-214h284v214l-74 14v61h261v-61l-82 -14v-530l82 -14v-61h-261z" />
    <glyph glyph-name="I" unicode="I" horiz-adv-x="345" 
d="M226 75l81 -14v-61h-269v61l82 14v530l-82 14v61h269v-61l-81 -14v-530z" />
    <glyph glyph-name="J" unicode="J" horiz-adv-x="353" 
d="M244 107q0 -41 -8 -71t-21.5 -53.5t-31.5 -41.5t-37 -34l-89 -75l-63 76l76 65q13 12 25.5 23.5t22 27t15 36.5t5.5 51v494l-82 14v61h270v-61l-82 -14v-498z" />
    <glyph glyph-name="K" unicode="K" horiz-adv-x="659" 
d="M502 0l-94 165q-17 29 -33 58t-29.5 53t-23 42t-12.5 26h-2l-82 -107v-162l77 -14v-61h-265v61l82 14v530l-82 13v62h250v-63l-62 -12v-231h2q9 12 20 26.5t22 28.5t21 26.5t18 21.5q26 34 52.5 66.5t52.5 64.5l-54 10v62h248v-61l-82 -14l-155 -189l206 -341l82 -14v-61
h-157z" />
    <glyph glyph-name="L" unicode="L" horiz-adv-x="536" 
d="M38 0v61l82 15v529l-82 14v61h269v-61l-81 -14v-516h213l13 89h68v-178h-482z" />
    <glyph glyph-name="M" unicode="M" horiz-adv-x="805" 
d="M498 0v61l81 14v199v62.5t0.5 62t1 53.5t1.5 38h-2q-6 -14 -17.5 -37.5t-26 -52.5t-31.5 -61t-33 -62l-44 -85h-51l-44 85q-18 33 -35 66.5t-31.5 62.5l-25.5 51t-16 33h-2q1 -14 1.5 -38t1 -53.5t0.5 -62v-63.5v-198l82 -14v-61h-270v61l82 14v530l-82 14v61h178
l84 -162q16 -31 31.5 -62l29 -58t24 -48.5t16.5 -34.5h2q6 13 16.5 35.5t24 49.5t29 57.5t32.5 60.5l83 162h179v-61l-82 -14v-530l82 -14v-61h-269z" />
    <glyph glyph-name="N" unicode="N" horiz-adv-x="735" 
d="M532 0l-194 306q-15 23 -31 49.5t-31.5 52t-29 48.5t-22.5 39h-2q1 -13 1.5 -34t1 -46t1 -52.5t0.5 -52.5v-235l79 -14v-61h-267v62l82 13v530l-82 13v62h177l195 -308q12 -20 27.5 -44.5t30.5 -50t29 -50t25 -43.5h2q-1 10 -1.5 30t-1 45.5t-1 54t-0.5 57.5v234l-79 14
v61h267v-61l-82 -14v-605h-94z" />
    <glyph glyph-name="O" unicode="O" horiz-adv-x="666" 
d="M624 340q0 -83 -20.5 -148t-58 -110t-91.5 -69t-121 -24t-121 24t-91.5 69t-57.5 110t-20 148q0 82 20.5 147t58 110.5t91 69.5t120.5 24t120.5 -24t91.5 -69.5t58.5 -110.5t20.5 -147zM515 340q0 60 -13 108t-37 81.5t-57.5 51.5t-74.5 18t-74.5 -18t-57.5 -51.5
t-37 -81.5t-13 -108q0 -123 49 -191t133 -68t133 68t49 191z" />
    <glyph glyph-name="P" unicode="P" horiz-adv-x="593" 
d="M571 476q0 -103 -59.5 -160.5t-165.5 -57.5h-120v-183l81 -14v-61h-269v61l82 14v530l-82 14v61h295q114 0 176 -54t62 -150zM462 476q0 23 -8 44t-24 36.5t-40.5 25t-56.5 9.5h-107v-244h118q31 0 53.5 11.5t37 29.5t21 41t6.5 47z" />
    <glyph glyph-name="Q" unicode="Q" horiz-adv-x="666" 
d="M624 340q0 -127 -46.5 -210.5t-129.5 -115.5q16 -11 33.5 -20t37.5 -16t44 -10.5t54 -3.5h16t18 1l-1 -79q-8 -2 -23.5 -2.5t-21.5 -0.5q-63 0 -102 11.5t-70.5 28.5t-63.5 36t-82 34q-115 15 -179.5 105t-64.5 242q0 82 20.5 147t58 110.5t91 69.5t120.5 24t120.5 -24
t91.5 -69.5t58.5 -110.5t20.5 -147zM515 340q0 60 -13 108t-37 81.5t-57.5 51.5t-74.5 18t-74.5 -18t-57.5 -51.5t-37 -81.5t-13 -108q0 -123 49 -191t133 -68t133 68t49 191z" />
    <glyph glyph-name="R" unicode="R" horiz-adv-x="651" 
d="M489 0l-143 287h-120v-212l77 -14v-61h-265v61l82 14v530l-82 14v61h306q112 0 167.5 -49.5t55.5 -140.5q0 -71 -33.5 -118t-90.5 -66v-2q3 -5 8.5 -15t13 -23.5t15.5 -29.5t17 -32l70 -128l81 -15v-61h-159zM459 490q0 48 -32 74.5t-89 26.5h-112v-215h113
q35 0 58.5 10.5t37 27t19 36.5t5.5 40z" />
    <glyph glyph-name="S" unicode="S" horiz-adv-x="525" 
d="M484 199q0 -47 -15.5 -85.5t-45.5 -65.5t-73.5 -42t-98.5 -15q-54 0 -104.5 10.5t-106.5 30.5v154h70l13 -84q24 -8 59.5 -15t68.5 -7q25 0 47.5 7.5t39.5 21.5t27 34.5t10 47.5q0 48 -29.5 73.5t-88.5 42.5q-36 11 -72 24.5t-65.5 35.5t-47.5 55t-18 83q0 41 16 75
t45 58t70 37.5t92 13.5q42 0 79.5 -7t78.5 -20v-150h-68l-15 78q-36 12 -77 12q-54 0 -83.5 -26.5t-29.5 -67.5q0 -24 9.5 -40t27 -27.5t41 -20t51.5 -16.5q37 -11 71.5 -26.5t61.5 -39t43.5 -57.5t16.5 -82z" />
    <glyph glyph-name="T" unicode="T" horiz-adv-x="576" 
d="M486 511l-14 80h-130v-516l82 -14v-61h-270v61l82 14v516h-131l-15 -80h-68v169h533v-169h-69z" />
    <glyph glyph-name="U" unicode="U" horiz-adv-x="704" 
d="M600 218q0 -110 -65.5 -169.5t-182.5 -59.5q-116 0 -182 59.5t-66 169.5v387l-82 14v61h261v-61l-73 -15v-377q0 -65 34 -105.5t108 -40.5t108 40.5t34 105.5v378l-74 14v61h261v-61l-81 -14v-387v0z" />
    <glyph glyph-name="V" unicode="V" horiz-adv-x="624" 
d="M374 0h-123l-179 605l-64 14v61h235v-61l-65 -14l71 -255q11 -42 21.5 -81.5t19 -72.5t14.5 -58t9 -37h2q2 11 8 35t14.5 57t19 73.5t22.5 83.5l71 255l-63 14v61h229v-61l-64 -14z" />
    <glyph glyph-name="W" unicode="W" horiz-adv-x="931" 
d="M677 0h-105l-63 264q-7 27 -13.5 56.5t-12.5 56.5t-10.5 49.5t-6.5 35.5h-2q-1 -9 -5.5 -29.5t-10.5 -48t-14 -60t-15 -65.5l-62 -259h-105l-170 605l-74 14v61h256v-61l-78 -14l58 -215q9 -34 18 -71t17.5 -71.5t15 -64t10.5 -48.5h2q2 12 7.5 37.5t12.5 57.5t15 69.5
t17 73.5l76 307h63l74 -301q9 -36 17.5 -73.5t16 -70.5t12.5 -59.5t8 -40.5h2q3 14 8.5 39.5t13.5 58t17 68.5t18 71l62 232l-77 15v61h252v-61l-74 -15z" />
    <glyph glyph-name="X" unicode="X" horiz-adv-x="661" 
d="M386 0v61l69 13l-57 95q-7 12 -16 27t-18.5 31t-18 32t-15.5 30h-2q-7 -13 -15.5 -29t-17.5 -32.5t-18.5 -31.5t-16.5 -27l-57 -95l69 -13v-61h-263v61l75 14l187 285l-158 244l-75 15v61h247v-63l-60 -11l39 -63q14 -23 32.5 -57t33.5 -63h2q14 28 32.5 61.5t33.5 57.5
l38 65l-60 10v63h253v-61l-75 -15l-165 -244l187 -285l75 -14v-61h-265z" />
    <glyph glyph-name="Y" unicode="Y" horiz-adv-x="624" 
d="M365 237v-162l82 -14v-61h-270v61l82 14v162l-177 368l-74 14v61h254v-63l-66 -12l39 -89q10 -22 20.5 -48l21 -52t20 -49.5t15.5 -40.5h2q6 18 15.5 42t19.5 49.5t21 50.5t20 46l39 89l-66 13v64h253v-61l-74 -14z" />
    <glyph glyph-name="Z" unicode="Z" horiz-adv-x="529" 
d="M36 0v81l237 381q8 13 19 29t23 33.5t24 34t22 30.5v2h-217l-15 -80h-68v169h417v-82l-233 -369q-9 -14 -20.5 -31.5t-23.5 -36.5t-24 -37l-22 -33v-2h257l13 85h70v-174h-459z" />
    <glyph glyph-name="bracketleft" unicode="[" horiz-adv-x="332" 
d="M101 702h206v-63l-113 -12v-694l113 -13v-62h-206v844z" />
    <glyph glyph-name="backslash" unicode="\" horiz-adv-x="376" 
d="M-5 762h75l311 -816h-74z" />
    <glyph glyph-name="bracketright" unicode="]" horiz-adv-x="332" 
d="M231 -142h-205v62l112 13v694l-112 12v63h205v-844z" />
    <glyph glyph-name="asciicircum" unicode="^" 
d="M409 278l-147 330h-2l-146 -330h-78l187 402h77l187 -402h-78z" />
    <glyph glyph-name="underscore" unicode="_" horiz-adv-x="500" 
d="M0 -75h500v-50h-500v50z" />
    <glyph glyph-name="grave" unicode="`" horiz-adv-x="440" 
d="M195 581l-134 125h114l96 -125h-76z" />
    <glyph glyph-name="a" unicode="a" horiz-adv-x="537" 
d="M405 -2h-52l-13 52h-2q-26 -16 -44 -27.5t-33.5 -19t-31 -11t-34.5 -3.5q-30 0 -57.5 9t-48 27.5t-33 47.5t-12.5 69q0 43 11.5 73t31 49t46.5 28t57 9q32 0 68 -8t75 -10v53q0 52 -22.5 70t-70.5 18q-19 0 -43.5 -4.5t-44.5 -12.5l-12 -55h-65v117q48 15 90 25.5
t90 10.5q50 0 84.5 -11.5t55.5 -33t30 -52t9 -67.5v-221q0 -10 1 -22t3 -20l78 -10v-54zM333 225q-30 2 -62.5 7.5t-51.5 5.5q-33 0 -55 -19.5t-22 -69.5q0 -37 19 -61.5t61 -24.5q14 0 24.5 2.5t22 8t26.5 14t38 21.5v116z" />
    <glyph glyph-name="b" unicode="b" horiz-adv-x="558" 
d="M519 247q0 -60 -15 -108t-42.5 -81t-66.5 -51t-87 -18q-40 0 -76.5 18.5t-57.5 40.5h-2l-4 -48h-89v637l-82 6v58l131 19h52v-293h2q12 13 26.5 27t31.5 26t36.5 19.5t42.5 7.5q100 0 150 -67t50 -193zM415 247q0 93 -32.5 133.5t-91.5 40.5q-16 0 -32 -7.5t-30.5 -19
t-27 -25t-21.5 -25.5v-214q8 -10 20.5 -19.5t27 -17.5t29.5 -13t29 -5q28 0 51.5 10t40.5 31t27 53.5t10 77.5z" />
    <glyph glyph-name="c" unicode="c" horiz-adv-x="435" 
d="M398 12q-26 -8 -60.5 -14.5t-60.5 -6.5q-114 0 -176 67.5t-62 189.5q0 61 17 108.5t48 80.5t74.5 50.5t96.5 17.5q24 0 55.5 -5t54.5 -11v-143h-61l-12 67q-10 4 -21 5t-22 1q-27 0 -50 -11t-40 -33t-26.5 -53.5t-9.5 -73.5q0 -84 35 -127.5t101 -43.5q23 0 50 5.5
t48 13.5l21 -84v0z" />
    <glyph glyph-name="d" unicode="d" horiz-adv-x="585" 
d="M448 -2h-56l-6 62h-2q-10 -11 -24.5 -23.5t-32 -23t-37.5 -17.5t-41 -7q-47 0 -86 18t-66.5 51t-42.5 81t-15 108q0 126 50.5 193t149.5 67q23 0 42.5 -6.5t36.5 -17.5t31 -24.5t27 -26.5h2v205l-82 6v58l131 19h52v-642l82 -10v-54zM378 349q-10 12 -22.5 25t-27 23.5
t-30 17t-31.5 6.5q-59 0 -91.5 -40.5t-32.5 -133.5q0 -45 10 -77.5t27 -53.5t41 -31t51 -10q13 0 28.5 6.5t30.5 16t27 20.5t20 20v211z" />
    <glyph glyph-name="e" unicode="e" horiz-adv-x="499" 
d="M134 233q0 -40 11 -70.5t30.5 -51t46.5 -31t58 -10.5q44 0 76 6t64 15l18 -78q-35 -10 -71 -16t-85 -6q-121 0 -182 68t-61 192q0 60 16 107.5t45 80.5t69.5 50.5t90.5 17.5q103 0 152 -63.5t49 -186.5v-24h-327zM374 300q0 28 -7 52.5t-21 42.5t-35.5 28.5t-50.5 10.5
q-51 0 -85.5 -37t-39.5 -98h239v1z" />
    <glyph glyph-name="f" unicode="f" horiz-adv-x="364" 
d="M372 633q-11 5 -32.5 11t-50.5 6q-13 0 -25.5 -4t-23 -12.5t-17 -22.5t-6.5 -34v-81h126v-78h-126v-343l92 -14v-61h-275v61l82 14v343h-66v78h66v96q0 31 12 56.5t33 44t49 28.5t61 10q32 0 65 -7t60 -20z" />
    <glyph glyph-name="g" unicode="g" horiz-adv-x="545" 
d="M420 438v-3q19 -15 32.5 -42.5t13.5 -56.5q0 -38 -15.5 -69t-43 -54t-65.5 -35.5t-83 -12.5q-21 0 -38 3t-31 7q-18 -8 -32 -27t-14 -36q0 -20 22 -26t53 -6h113q53 0 89.5 -8t59 -23t32 -37.5t9.5 -50.5q0 -37 -22 -70t-59.5 -58t-88 -39.5t-108.5 -14.5
q-105 0 -155.5 35.5t-50.5 95.5q0 19 8.5 36t22 31t30 25t33.5 17v2q-32 10 -51.5 30.5t-19.5 49.5q0 15 6 30.5t16 29t22 24t24 15.5v2q-33 20 -55.5 55t-22.5 79q0 38 15.5 69.5t43 54t66 35t84.5 12.5q22 0 42 -2.5t36 -7.5h181v-59h-99zM373 336q0 41 -31 70t-83 29
q-25 0 -46 -8t-36 -21.5t-23 -31.5t-8 -38q0 -40 30.5 -69.5t82.5 -29.5t83 29.5t31 69.5zM421 -51q0 12 -4.5 22t-16 17t-32 11t-52.5 4h-103q-30 -14 -55.5 -35t-25.5 -51q0 -32 33.5 -49t90.5 -17q38 0 68.5 9.5t52 24t33 32t11.5 32.5z" />
    <glyph glyph-name="h" unicode="h" horiz-adv-x="614" 
d="M346 0v61l61 14v257q0 49 -20 70t-48 21q-42 0 -73 -17.5t-58 -52.5v-278l67 -14v-61h-250v61l82 14v562l-82 6v58l131 19h52v-292h2q55 79 157 79q29 0 54.5 -9t45 -28.5t30.5 -49.5t11 -73v-272l82 -14v-61h-244z" />
    <glyph glyph-name="i" unicode="i" horiz-adv-x="323" 
d="M34 0v61l82 14v338l-82 6v59l131 18h52v-421l82 -14v-61h-265zM99 641q0 26 19 43.5t46 17.5t46 -17.5t19 -43.5t-19 -44t-46 -18t-46 18t-19 44z" />
    <glyph glyph-name="j" unicode="j" horiz-adv-x="295" 
d="M77 -77q13 12 20 22t11 22t5 28.5t1 41.5v376l-82 6v59l131 18h52v-451q0 -36 -1.5 -61t-8 -44.5t-19 -37t-33.5 -37.5l-92 -86l-62 67zM97 641q0 26 19 43.5t46 17.5t46 -17.5t19 -43.5t-19 -44t-46 -18t-46 18t-19 44z" />
    <glyph glyph-name="k" unicode="k" horiz-adv-x="577" 
d="M423 0l-79 146q-11 19 -20 37t-16.5 32.5t-12.5 24.5t-6 14h-2l-79 -85v-94l75 -13v-62h-258v61l82 14v562l-82 6v58l131 19h52v-449h3q3 4 10.5 13t17 20.5t21 25t23.5 26.5l63 70l-55 9v61h237v-60l-79 -14l-98 -107l139 -240l79 -14v-61h-146z" />
    <glyph glyph-name="l" unicode="l" horiz-adv-x="314" 
d="M107 637l-82 6v58l131 19h52v-645l82 -14v-61h-265v61l82 14v562z" />
    <glyph glyph-name="m" unicode="m" horiz-adv-x="894" 
d="M628 0v63l60 12v256q0 49 -17 70.5t-46 21.5q-41 0 -68 -21.5t-54 -55.5v-271l64 -12v-63h-225v63l60 12v256q0 49 -16.5 70.5t-45.5 21.5q-21 0 -37.5 -5.5t-31 -16t-27.5 -25t-27 -31.5v-270l64 -12v-63h-247v61l82 14v338l-82 6v59l131 18h41l6 -77h2q23 38 61.5 63
t90.5 25q43 0 77.5 -21.5t47.5 -70.5h2q25 38 65.5 65t92.5 27q29 0 54.5 -9t44 -28.5t29 -50t10.5 -73.5v-271l81 -14v-61h-242z" />
    <glyph glyph-name="n" unicode="n" horiz-adv-x="623" 
d="M355 0v61l61 14v257q0 49 -20 70t-48 21q-42 0 -73 -21.5t-58 -56.5v-270l67 -14v-61h-250v61l82 14v338l-82 6v59l131 18h41l6 -77h2q22 37 66.5 62.5t96.5 25.5q29 0 54.5 -9t44.5 -28.5t30 -50t11 -73.5v-271l82 -14v-61h-244z" />
    <glyph glyph-name="o" unicode="o" horiz-adv-x="531" 
d="M266 -11q-51 0 -93 18t-71.5 51.5t-46 81.5t-16.5 108q0 61 16.5 109t46 81.5t71.5 51t93 17.5t92.5 -17.5t71 -51t46 -81.5t16.5 -109q0 -60 -16.5 -108t-46 -81.5t-71 -51.5t-92.5 -18zM266 76q58 0 90.5 44.5t32.5 127.5q0 85 -32.5 128.5t-90.5 43.5q-59 0 -91 -43.5
t-32 -128.5q0 -83 32 -127.5t91 -44.5z" />
    <glyph glyph-name="p" unicode="p" horiz-adv-x="577" 
d="M538 247q0 -60 -15 -107.5t-42.5 -81t-66 -51.5t-85.5 -18q-42 0 -76.5 16.5t-50.5 39.5h-2v-180l81 -14v-61h-264v61l82 14v548l-82 6v59l131 18h39l5 -74h2q11 16 26.5 31t34 27t40 19.5t44.5 7.5q99 0 149 -66.5t50 -193.5zM434 247q0 93 -32.5 133.5t-90.5 40.5
q-15 0 -30.5 -7t-30.5 -17.5t-28 -24t-22 -25.5v-221q8 -10 20 -19.5t26.5 -16.5t29.5 -11t28 -4q56 0 93 40.5t37 131.5z" />
    <glyph glyph-name="q" unicode="q" horiz-adv-x="557" 
d="M296 -210v61l82 14v184h-2q-22 -25 -54.5 -42.5t-71.5 -17.5q-48 0 -86.5 18t-66.5 51t-43 81t-15 108q0 126 50.5 193t148.5 67q45 0 81.5 -25.5t63.5 -57.5h2l4 72h90v-631l82 -14v-61h-265zM378 346q-10 13 -23 26t-27.5 24t-30 18t-30.5 7q-58 0 -91 -40.5
t-33 -133.5q0 -45 10 -77.5t27.5 -53.5t41.5 -31t52 -10q13 0 28 5.5t29.5 14t26.5 18.5t20 20v213z" />
    <glyph glyph-name="r" unicode="r" horiz-adv-x="436" 
d="M357 344l-12 71q-8 4 -26 4q-32 0 -60 -27t-42 -75v-242l92 -14v-61h-275v61l82 14v338l-82 6v59l131 18h40l3 -89h2q4 18 15 36t26.5 31.5t35 22t41.5 8.5q25 0 47 -7t42 -18v-136h-60z" />
    <glyph glyph-name="s" unicode="s" horiz-adv-x="431" 
d="M388 147q0 -73 -51 -114.5t-135 -41.5q-41 0 -79.5 6t-80.5 20v133h62l13 -63q26 -8 46 -11t34 -3q18 0 35 4.5t30.5 13t21.5 22t8 31.5q0 19 -6.5 31.5t-17.5 21t-26.5 14.5t-33.5 11q-29 8 -56 18.5t-48 26.5t-33.5 40t-12.5 60q0 31 12.5 57t35 44.5t53.5 28.5t69 10
q30 0 65 -5.5t67 -16.5v-119h-61l-12 56q-11 3 -23.5 5t-25.5 2q-39 0 -60.5 -17t-21.5 -43q0 -18 6.5 -29t19.5 -18.5t30.5 -12.5t40.5 -12q22 -6 46 -16t43.5 -27t32.5 -43t13 -64z" />
    <glyph glyph-name="t" unicode="t" horiz-adv-x="371" 
d="M354 19q-32 -14 -66.5 -21t-64.5 -7q-56 0 -92.5 27.5t-36.5 82.5v317h-67v78h67v93l101 36v-129h122v-78h-122v-293q0 -49 47 -49q21 0 42 5.5t44 13.5l26 -76v0z" />
    <glyph glyph-name="u" unicode="u" horiz-adv-x="600" 
d="M460 -2h-53l-9 71h-2q-24 -38 -65 -59t-92 -21q-29 0 -54.5 9t-44 28.5t-29 49.5t-10.5 73v264l-82 6v58l131 19h52v-333q0 -48 18 -69t47 -21q42 0 70.5 17t55.5 52v271l-71 6v58l120 19h52v-418l82 -10v-54z" />
    <glyph glyph-name="v" unicode="v" horiz-adv-x="595" 
d="M357 0h-119l-156 422l-74 12v62h242v-66l-65 -8l57 -168q9 -24 17 -50t15.5 -49t13.5 -43t9 -32h2q4 14 10 34.5t13.5 43.5t15.5 48t16 48l59 168l-65 8v66h239v-62l-74 -12z" />
    <glyph glyph-name="w" unicode="w" horiz-adv-x="790" 
d="M575 0h-88l-54 194l-37 140h-2q-5 -19 -15.5 -57.5t-21.5 -80.5l-54 -196h-88l-133 422l-74 12v62h238v-64l-67 -10l44 -153q5 -17 11 -37.5t11.5 -41t10.5 -39.5t8 -33h2q6 34 18 82t25 91l58 205h58l58 -205q16 -54 27 -98.5t17 -74.5h2q3 15 8 35t11 41t11.5 41
t10.5 37l43 150l-67 10v64h235v-62l-74 -12z" />
    <glyph glyph-name="x" unicode="x" horiz-adv-x="548" 
d="M397 0l-61 94q-9 13 -18.5 28t-18 29t-15.5 25.5t-11 18.5h-2q-2 -4 -8 -14.5t-15 -24.5t-20 -31.5t-23 -35.5l-57 -89h-139v61l76 14l133 192l-108 155l-75 15v59h143l49 -76q14 -23 28.5 -46.5t20.5 -34.5h2q5 12 19.5 35.5t28.5 44.5l50 77h136v-59l-75 -15l-107 -155
l134 -192l75 -14v-61h-142z" />
    <glyph glyph-name="y" unicode="y" horiz-adv-x="594" 
d="M380 83q-28 -68 -60.5 -124t-67.5 -91l-97 -96l-58 59l67 71q23 24 41 48t35 59l-158 413l-74 12v62h242v-66l-65 -8l48 -135q8 -23 17.5 -50t18 -53t15.5 -49.5t12 -39.5h2q5 16 12.5 39.5t16.5 50t18.5 53.5t17.5 50l48 133l-65 9v66h240v-62l-75 -12z" />
    <glyph glyph-name="z" unicode="z" horiz-adv-x="473" 
d="M40 0v76l174 224q9 12 20.5 26t24 29t25 29.5t22.5 25.5v2h-178l-12 -64h-60v148h369v-76l-197 -249q-17 -22 -36 -44t-35 -41v-2h200l13 70h62v-154h-392z" />
    <glyph glyph-name="braceleft" unicode="{" horiz-adv-x="333" 
d="M50 320q36 0 53.5 22t17.5 62v171q0 57 36 93t99 36h60v-78h-35q-67 0 -67 -76v-160q0 -17 -4 -35t-12.5 -33.5t-21.5 -26t-31 -13.5v-2q18 -2 31 -13t21.5 -26t12.5 -33t4 -35v-161q0 -75 67 -75h35v-79h-60q-63 0 -99 36t-36 93v172q0 40 -17.5 62t-53.5 22v77z" />
    <glyph glyph-name="bar" unicode="|" horiz-adv-x="279" 
d="M175 720v-930h-71v930h71z" />
    <glyph glyph-name="braceright" unicode="}" horiz-adv-x="333" 
d="M282 243q-35 0 -52.5 -22t-17.5 -62v-172q0 -57 -36 -93t-99 -36h-60v79h34q68 0 68 75v161q0 17 4 35t12 33t21 25.5t31 13.5v2q-19 4 -32 15.5t-21 26.5t-11.5 32t-3.5 34v160q0 76 -68 76h-34v78h60q63 0 99 -36t36 -93v-171q0 -40 17.5 -62t52.5 -22v-77v0z" />
    <glyph glyph-name="asciitilde" unicode="~" 
d="M486 280q-20 -17 -36.5 -31t-33.5 -24t-35 -15.5t-40 -5.5q-29 0 -49.5 11t-37.5 23.5t-34 23.5t-38 11q-27 0 -48.5 -16t-55.5 -44l-41 59q19 17 36 31t34 24t35 15.5t40 5.5q29 0 49 -10.5t37 -23.5t34 -23.5t39 -10.5q13 0 24.5 4t23.5 11.5t25.5 18.5t30.5 25l41 -59
v0z" />
    <glyph glyph-name="uni00A0" unicode="&#xa0;" horiz-adv-x="231" 
 />
    <glyph glyph-name="exclamdown" unicode="&#xa1;" horiz-adv-x="261" 
d="M75 -210v197l19 314h73l19 -314v-197h-111zM64 438q0 29 19 49t47 20t47 -20t19 -49t-19 -49t-47 -20t-47 20t-19 49z" />
    <glyph glyph-name="cent" unicode="&#xa2;" 
d="M265 0v80q-36 6 -68 28t-56 56t-38 77.5t-14 90.5q0 48 14 91t38 77t56.5 56t69.5 27v74h74v-70q21 -2 44.5 -6.5t44.5 -12.5v-140h-60l-12 67q-9 3 -20 5t-25 2q-26 0 -48 -13t-39 -36t-26.5 -54t-9.5 -67q0 -35 10 -66t26.5 -54t39 -36.5t48.5 -13.5q33 0 58.5 4.5
t47.5 11.5l25 -82q-25 -8 -47 -13t-58 -8v-75h-75z" />
    <glyph glyph-name="sterling" unicode="&#xa3;" 
d="M65 72q17 19 32 46t26.5 57t19 61t9.5 59h-77v77h83v123q0 38 13.5 69.5t37.5 54.5t57 36t72 13q32 0 62.5 -9t55.5 -21v-139h-64l-13 76q-19 7 -42 7q-18 0 -32.5 -8.5t-24.5 -22t-15.5 -30t-5.5 -33.5v-116h126v-77h-130q-2 -27 -8 -57.5t-15 -59t-21 -53t-26 -39.5v-2
h210l14 80h69v-164h-413v72z" />
    <glyph glyph-name="currency" unicode="&#xa4;" 
d="M84 545l68 -70q22 16 49.5 25t60.5 9t60.5 -9t49.5 -25l68 70l40 -42l-68 -71q32 -47 32 -111q-1 -32 -8 -61.5t-24 -53.5l68 -74l-40 -41l-69 71q-43 -34 -109 -34t-109 34l-69 -72l-41 43l69 72q-31 49 -31 116q0 64 30 111l-67 71zM155 321q0 -26 7 -49t21 -40.5
t33.5 -27.5t45.5 -10q25 0 45 10t34 27.5t21 40.5t7 49q0 52 -30 86.5t-77 34.5q-48 0 -77.5 -34.5t-29.5 -86.5z" />
    <glyph glyph-name="yen" unicode="&#xa5;" 
d="M225 657v-63l-65 -12l33 -80q9 -20 18.5 -44.5t19 -48.5t17.5 -45.5t13 -37.5h2q3 9 9 26.5t15 40.5t19.5 49.5t21.5 52.5l36 85l-65 13v64h239v-61l-75 -14l-103 -234v-2h101v-57h-128l-13 -30v-17h141v-57h-148v-110l81 -14v-61h-265v61l82 14v110h-148v57h141v17
l-14 30h-127v57h101v2l-104 234l-75 14v61h240z" />
    <glyph glyph-name="brokenbar" unicode="&#xa6;" horiz-adv-x="279" 
d="M175 680v-336h-71v336h71zM175 167v-337h-71v337h71z" />
    <glyph glyph-name="section" unicode="&#xa7;" horiz-adv-x="532" 
d="M54 322q0 72 79 117v2q-17 18 -28.5 44.5t-11.5 52.5q0 33 13.5 61t38.5 48.5t60 32t77 11.5q41 0 79 -7.5t67 -17.5v-123h-64l-12 61q-11 4 -24.5 6t-33.5 2q-43 0 -70.5 -22t-27.5 -52q0 -22 12.5 -39.5t32 -32.5t43 -27t46.5 -24q23 -11 49 -23.5t47.5 -31.5t36 -44.5
t14.5 -61.5q0 -34 -18 -65t-55 -52v-2q17 -17 28.5 -42t11.5 -52q0 -36 -15 -65t-42 -49.5t-64.5 -31.5t-82.5 -11q-48 0 -89.5 9t-78.5 22v133h67l13 -69q14 -6 33.5 -10.5t42.5 -4.5q48 0 79.5 20t31.5 55q0 22 -14.5 40t-36 33t-47.5 27t-49 24q-23 11 -47.5 24
t-44.5 31.5t-33 43.5t-13 60zM146 327q0 -17 8 -30t20.5 -23.5t29.5 -19.5t35 -18q29 -14 59.5 -29t51.5 -29q17 16 27 30.5t10 34.5q0 17 -9 31.5t-23 26.5t-31 21.5t-34 17.5q-31 16 -60 29t-46 28q-16 -16 -27 -33.5t-11 -36.5z" />
    <glyph glyph-name="dieresis" unicode="&#xa8;" horiz-adv-x="440" 
d="M61 642q0 23 17 39.5t42 16.5q26 0 43.5 -16.5t17.5 -39.5t-17.5 -40t-43.5 -17q-25 0 -42 17t-17 40zM259 642q0 23 17.5 39.5t42.5 16.5t42.5 -16.5t17.5 -39.5t-17.5 -40t-42.5 -17t-42.5 17t-17.5 40z" />
    <glyph glyph-name="copyright" unicode="&#xa9;" horiz-adv-x="825" 
d="M714 339q0 66 -22.5 124t-62.5 102t-95 69.5t-121 25.5t-122 -25.5t-96 -69.5t-62.5 -102t-22.5 -124t22.5 -124.5t62.5 -102t96 -68.5t122 -25t121 25t95 68.5t62.5 102t22.5 124.5zM783 339q0 -79 -27.5 -149t-77 -122t-117.5 -82t-148 -30q-81 0 -149 30t-117.5 82
t-77 122t-27.5 149t27.5 149t77 122t117.5 82t149 30q80 0 148 -30t117.5 -82t77 -122t27.5 -149zM541 120q-26 -8 -53 -14.5t-68 -6.5q-47 0 -84.5 16t-64 46t-41 72.5t-14.5 95.5q0 56 15 101.5t42 77.5t64.5 49t82.5 17q38 0 67 -6.5t42 -11.5v-107h-55l-13 52
q-11 3 -19.5 4t-22.5 1q-57 0 -89.5 -45.5t-32.5 -126.5t32 -123.5t91 -42.5q26 0 51 3.5t52 11.5z" />
    <glyph glyph-name="ordfeminine" unicode="&#xaa;" horiz-adv-x="342" 
d="M259 268h-41l-8 29h-1q-30 -18 -46.5 -26t-40.5 -8q-39 0 -66.5 21t-27.5 66q0 47 26 69t65 22q22 0 42 -4.5t44 -5.5v27q0 26 -13.5 36.5t-40.5 10.5q-12 0 -23 -2t-22 -6l-9 -34h-48v76q24 8 54 14t58 6q63 0 90.5 -25.5t27.5 -73.5v-114q0 -8 0.5 -14.5t1.5 -11.5
l49 -8v-36zM205 391q-17 2 -34 4.5t-28 2.5q-18 0 -30.5 -9.5t-12.5 -34.5q0 -19 10.5 -30t34.5 -11q7 0 12.5 1t12 3.5t14.5 7t21 11.5v55z" />
    <glyph glyph-name="guillemotleft" unicode="&#xab;" horiz-adv-x="483" 
d="M344 70l-118 208l118 208h98l-119 -206v-3l119 -207h-98zM148 70l-117 208l117 208h98l-119 -206v-3l119 -207h-98z" />
    <glyph glyph-name="logicalnot" unicode="&#xac;" 
d="M413 140v188h-373v71h444v-259h-71z" />
    <glyph glyph-name="uni00AD" unicode="&#xad;" horiz-adv-x="330" 
d="M33 313h264v-71h-264v71z" />
    <glyph glyph-name="registered" unicode="&#xae;" horiz-adv-x="512" 
d="M229 549h33q20 0 26.5 10.5t6.5 22.5q0 28 -34 28h-32v-61zM156 647h108q38 0 57 -17.5t19 -47.5q0 -23 -10 -39.5t-29 -23.5q5 -8 10.5 -18t9.5 -19l16 -29l29 -5v-25h-61l-44 89h-32v-59l26 -5v-25h-99v25l29 5v164l-29 6v24zM414 532q0 34 -12 64.5t-33 53t-50 36
t-63 13.5q-35 0 -64 -13.5t-50 -36t-32.5 -53t-11.5 -64.5q0 -35 11.5 -65t32.5 -53t50 -36t64 -13q34 0 63 13t50 36t33 53t12 65zM455 532q0 -43 -15 -80.5t-41.5 -65t-63 -43.5t-79.5 -16t-79.5 16t-63 43.5t-41.5 65t-15 80.5q0 42 15 79.5t41.5 65.5t63 44t79.5 16
t79.5 -16t63 -44t41.5 -65.5t15 -79.5z" />
    <glyph glyph-name="macron" unicode="&#xaf;" horiz-adv-x="440" 
d="M78 672h284v-60h-284v60z" />
    <glyph glyph-name="degree" unicode="&#xb0;" horiz-adv-x="398" 
d="M363 524q0 -35 -13 -66t-35 -54t-52 -36t-63 -13q-34 0 -64 13t-52.5 36t-35.5 54t-13 66t13 65.5t35.5 53t52.5 35.5t64 13q33 0 63 -13t52 -35.5t35 -53t13 -65.5zM295 523q0 21 -7.5 40.5t-20 34.5t-30 23.5t-37.5 8.5q-21 0 -38.5 -8.5t-30.5 -23.5t-20.5 -34.5
t-7.5 -40.5q0 -45 27.5 -76t69.5 -31q20 0 37.5 8.5t30 23t20 34t7.5 41.5z" />
    <glyph glyph-name="plusminus" unicode="&#xb1;" 
d="M297 279v-181h-71v181h-186v71h186v176h71v-176h187v-71h-187zM40 -24v71h444v-71h-444z" />
    <glyph glyph-name="uni00B2" unicode="&#xb2;" horiz-adv-x="347" 
d="M44 429v33q0 48 14 79.5t39 57.5q18 18 39.5 31t40.5 25t32 26t13 34q0 17 -12.5 31.5t-50.5 14.5q-13 0 -24 -2t-22 -6l-11 -40h-48v84q31 15 58.5 21t62.5 6q60 0 92 -28.5t32 -78.5q0 -30 -12 -50.5t-29.5 -35.5t-37.5 -27.5t-37 -25.5q-22 -17 -40.5 -37t-22.5 -49
v-2h131l10 43h49v-104h-266z" />
    <glyph glyph-name="uni00B3" unicode="&#xb3;" horiz-adv-x="347" 
d="M300 554q0 -33 -14 -57.5t-39 -41t-58 -25t-70 -8.5q-20 0 -37 3t-35 8l13 62q17 -5 31 -7.5t27 -2.5q19 0 38 3.5t34 11.5t24 21.5t9 33.5q0 26 -16.5 41t-42.5 15l-24 -3l-9 46q43 7 59 23t16 42q0 23 -16.5 33t-36.5 10q-13 0 -23.5 -2t-22.5 -9l-11 -43h-48v81
q27 17 52.5 26t57.5 9q53 0 87.5 -22t34.5 -71q0 -65 -49 -85v-2q32 -6 50.5 -29t18.5 -61z" />
    <glyph glyph-name="acute" unicode="&#xb4;" horiz-adv-x="440" 
d="M169 581l96 125h114l-134 -125h-76z" />
    <glyph glyph-name="mu" unicode="&#xb5;" horiz-adv-x="600" 
d="M460 -2h-53q-3 17 -5 35.5t-4 35.5h-2q-23 -36 -58.5 -57.5t-82.5 -21.5q-17 0 -33 4t-27 15h-2v-219h-92v623l-82 6v58l131 19h52v-333q0 -48 18 -69t47 -21q42 0 70.5 17t55.5 52v271l-71 6v58l120 19h52v-418l82 -10v-54z" />
    <glyph glyph-name="paragraph" unicode="&#xb6;" horiz-adv-x="625" 
d="M56 480q0 44 17 81t47.5 63.5t73 41t93.5 14.5h294v-66h-73v-727h-79v727h-68v-727h-78v384q-52 0 -94 16t-71.5 44.5t-45.5 66.5t-16 82z" />
    <glyph glyph-name="periodcentered" unicode="&#xb7;" horiz-adv-x="228" 
d="M48 279q0 29 19 49t47 20t47 -20t19 -49t-19 -49t-47 -20t-47 20t-19 49z" />
    <glyph glyph-name="cedilla" unicode="&#xb8;" horiz-adv-x="440" 
d="M312 -127q0 -44 -30.5 -68t-75.5 -24q-26 0 -49 5.5t-39 13.5l19 45q17 -7 33 -11t29 -4q23 0 37.5 10t14.5 30q0 29 -28 37t-71 10l31 92h55l-18 -49v-2q38 -3 65 -25.5t27 -59.5z" />
    <glyph glyph-name="uni00B9" unicode="&#xb9;" horiz-adv-x="347" 
d="M80 429v39l68 11v272l-2 2l-70 -36l-20 43l105 57h62v-338l61 -11v-39h-204z" />
    <glyph glyph-name="ordmasculine" unicode="&#xba;" horiz-adv-x="341" 
d="M313 411q0 -70 -39.5 -109t-102.5 -39q-64 0 -103.5 39t-39.5 109q0 71 39.5 110t103.5 39q63 0 102.5 -39t39.5 -110zM237 411q0 43 -17.5 64.5t-48.5 21.5q-32 0 -49.5 -21.5t-17.5 -64.5q0 -42 17.5 -64t49.5 -22q31 0 48.5 22t17.5 64z" />
    <glyph glyph-name="guillemotright" unicode="&#xbb;" horiz-adv-x="483" 
d="M41 70l119 207v3l-119 206h98l118 -208l-118 -208h-98zM236 70l119 207v3l-119 206h98l118 -208l-118 -208h-98z" />
    <glyph glyph-name="onequarter" unicode="&#xbc;" horiz-adv-x="780" 
d="M56 269v39l68 11v272l-2 2l-70 -36l-20 43l105 57h62v-338l61 -11v-39h-204zM675 91v-42l51 -11v-38h-178v38l55 11v42h-182v51l148 246h80l-148 -238v-2h102v81h72v-81h39v-57h-39zM258 -11h-69l337 679h70z" />
    <glyph glyph-name="onehalf" unicode="&#xbd;" horiz-adv-x="780" 
d="M56 269v39l68 11v272l-2 2l-70 -36l-20 43l105 57h62v-338l61 -11v-39h-204zM479 0v33q0 48 14 79.5t39 57.5q18 18 39.5 31t40.5 25t32 26t13 34q0 17 -12.5 31.5t-50.5 14.5q-13 0 -24 -2t-22 -6l-11 -40h-48v84q31 15 58.5 21t62.5 6q60 0 92 -28.5t32 -78.5
q0 -30 -12 -50.5t-29.5 -35.5t-37.5 -27.5t-37 -25.5q-22 -17 -40.5 -37t-22.5 -49v-2h131l10 43h49v-104h-266zM252 -11h-69l337 679h70z" />
    <glyph glyph-name="threequarters" unicode="&#xbe;" horiz-adv-x="780" 
d="M309 394q0 -33 -14 -57.5t-39 -41t-58 -25t-70 -8.5q-20 0 -37 3t-35 8l13 62q17 -5 31 -7.5t27 -2.5q19 0 38 3.5t34 11.5t24 21.5t9 33.5q0 26 -16.5 41t-42.5 15l-24 -3l-9 46q43 7 59 23t16 42q0 23 -16.5 33t-36.5 10q-13 0 -23.5 -2t-22.5 -9l-11 -43h-48v81
q27 17 52.5 26t57.5 9q53 0 87.5 -22t34.5 -71q0 -65 -49 -85v-2q32 -6 50.5 -29t18.5 -61zM690 91v-42l51 -11v-38h-178v38l55 11v42h-182v51l148 246h80l-148 -238v-2h102v81h72v-81h39v-57h-39zM269 -11h-69l337 679h70z" />
    <glyph glyph-name="questiondown" unicode="&#xbf;" horiz-adv-x="417" 
d="M197 301h89v-95q0 -28 -10.5 -49.5t-26 -40t-33.5 -35.5t-33.5 -35t-26 -39.5t-10.5 -48.5q0 -37 24 -61t69 -24q15 0 28 2.5t25 6.5l14 84h70v-160q-13 -5 -31 -9t-37 -8t-38 -6t-35 -2q-96 0 -147 45.5t-51 123.5q0 37 12 66t29.5 52.5t38.5 42.5t38.5 36t29.5 33.5
t12 35.5v85zM177 438q0 29 19 49t47 20t47 -20t19 -49t-19 -49t-47 -20t-47 20t-19 49z" />
    <glyph glyph-name="Agrave" unicode="&#xc0;" horiz-adv-x="665" 
d="M271 680h125l189 -604l74 -15v-61h-254v64l77 11l-34 112h-233l-34 -112l77 -11v-64h-252v61l74 14zM426 269l-28 93q-10 34 -20.5 69.5t-19.5 67l-16 56t-10 38.5h-2q-4 -17 -11 -43.5t-16 -58t-19 -65.5t-20 -65l-28 -92h190zM312 744l-167 114h124l127 -114h-84z" />
    <glyph glyph-name="Aacute" unicode="&#xc1;" horiz-adv-x="665" 
d="M271 680h125l189 -604l74 -15v-61h-254v64l77 11l-34 112h-233l-34 -112l77 -11v-64h-252v61l74 14zM426 269l-28 93q-10 34 -20.5 69.5t-19.5 67l-16 56t-10 38.5h-2q-4 -17 -11 -43.5t-16 -58t-19 -65.5t-20 -65l-28 -92h190zM272 744l127 114h124l-167 -114h-84z" />
    <glyph glyph-name="Acircumflex" unicode="&#xc2;" horiz-adv-x="665" 
d="M271 680h125l189 -604l74 -15v-61h-254v64l77 11l-34 112h-233l-34 -112l77 -11v-64h-252v61l74 14zM426 269l-28 93q-10 34 -20.5 69.5t-19.5 67l-16 56t-10 38.5h-2q-4 -17 -11 -43.5t-16 -58t-19 -65.5t-20 -65l-28 -92h190zM159 744l131 114h79l133 -114h-96l-75 73
h-2l-73 -73h-97z" />
    <glyph glyph-name="Atilde" unicode="&#xc3;" horiz-adv-x="665" 
d="M271 680h125l189 -604l74 -15v-61h-254v64l77 11l-34 112h-233l-34 -112l77 -11v-64h-252v61l74 14zM426 269l-28 93q-10 34 -20.5 69.5t-19.5 67l-16 56t-10 38.5h-2q-4 -17 -11 -43.5t-16 -58t-19 -65.5t-20 -65l-28 -92h190zM503 796q-29 -21 -54.5 -34.5t-59.5 -13.5
q-21 0 -36.5 6t-28 13.5t-25 13.5t-28.5 6q-20 0 -35.5 -9.5t-41.5 -26.5l-35 51q29 20 54 33.5t58 13.5q22 0 37 -6.5t27.5 -14t24.5 -13.5t29 -6q19 0 35 9.5t41 26.5l38 -49v0z" />
    <glyph glyph-name="Adieresis" unicode="&#xc4;" horiz-adv-x="665" 
d="M271 680h125l189 -604l74 -15v-61h-254v64l77 11l-34 112h-233l-34 -112l77 -11v-64h-252v61l74 14zM426 269l-28 93q-10 34 -20.5 69.5t-19.5 67l-16 56t-10 38.5h-2q-4 -17 -11 -43.5t-16 -58t-19 -65.5t-20 -65l-28 -92h190zM157 799q0 23 17.5 40t42.5 17
q26 0 43.5 -17t17.5 -40t-17.5 -40t-43.5 -17q-25 0 -42.5 17t-17.5 40zM384 799q0 23 17.5 40t42.5 17q26 0 43.5 -17t17.5 -40t-17.5 -40t-43.5 -17q-25 0 -42.5 17t-17.5 40z" />
    <glyph glyph-name="Aring" unicode="&#xc5;" horiz-adv-x="665" 
d="M271 680h125l189 -604l74 -15v-61h-254v64l77 11l-34 112h-233l-34 -112l77 -11v-64h-252v61l74 14zM426 269l-28 93q-10 34 -20.5 69.5t-19.5 67l-16 56t-10 38.5h-2q-4 -17 -11 -43.5t-16 -58t-19 -65.5t-20 -65l-28 -92h190zM230 813q0 21 8 40t21.5 33.5t32 22.5
t39.5 8t39.5 -8t32 -22.5t21.5 -33.5t8 -40q0 -22 -8 -41t-21.5 -33.5t-32 -22.5t-39.5 -8t-39.5 8t-32 22.5t-21.5 33.5t-8 41zM282 813q0 -25 14 -41.5t35 -16.5q20 0 34 16.5t14 41.5q0 24 -14 40.5t-34 16.5q-21 0 -35 -16.5t-14 -40.5z" />
    <glyph glyph-name="AE" unicode="&#xc6;" horiz-adv-x="925" 
d="M380 0v62l73 13v112h-224l-65 -112l65 -13v-62h-251v61l78 14l310 530l-73 13v62h566v-154h-69l-12 66h-219v-197h191l11 49h60v-184h-60l-11 52h-191v-223h240l12 74h68v-163h-499zM453 269v97v54t0.5 60t1 58.5t1.5 50.5h-2q-8 -13 -21 -37t-30 -53.5t-36 -62.5
t-38 -65l-58 -102h182z" />
    <glyph glyph-name="Ccedilla" unicode="&#xc7;" horiz-adv-x="548" 
d="M420 -127q0 -44 -30.5 -68t-75.5 -24q-26 0 -49 5.5t-39 13.5l19 45q17 -7 33 -11t29 -4q23 0 37.5 10t14.5 30q0 29 -28 37t-71 10l26 79q-115 18 -179 107.5t-64 236.5q0 82 24.5 146.5t68 109.5t103 69t129.5 24q42 0 71.5 -6.5t60.5 -17.5v-154h-69l-14 80
q-14 4 -25.5 5.5t-28.5 1.5q-43 0 -81.5 -17.5t-67.5 -50.5t-46 -81t-17 -109q0 -121 51 -189.5t142 -68.5q39 0 72 6t71 19l26 -87q-20 -7 -39 -12.5t-39 -9t-42 -5.5t-49 -2h-5l-11 -31v-2q38 -3 65 -25.5t27 -59.5z" />
    <glyph glyph-name="Egrave" unicode="&#xc8;" horiz-adv-x="591" 
d="M38 0v61l82 14v530l-82 14v61h487v-154h-68l-13 66h-218v-197h190l12 49h60v-184h-60l-12 52h-190v-223h239l12 74h68v-163h-507zM285 744l-167 114h124l127 -114h-84z" />
    <glyph glyph-name="Eacute" unicode="&#xc9;" horiz-adv-x="591" 
d="M38 0v61l82 14v530l-82 14v61h487v-154h-68l-13 66h-218v-197h190l12 49h60v-184h-60l-12 52h-190v-223h239l12 74h68v-163h-507zM245 744l127 114h124l-167 -114h-84z" />
    <glyph glyph-name="Ecircumflex" unicode="&#xca;" horiz-adv-x="591" 
d="M38 0v61l82 14v530l-82 14v61h487v-154h-68l-13 66h-218v-197h190l12 49h60v-184h-60l-12 52h-190v-223h239l12 74h68v-163h-507zM132 744l131 114h79l133 -114h-96l-75 73h-2l-73 -73h-97z" />
    <glyph glyph-name="Edieresis" unicode="&#xcb;" horiz-adv-x="591" 
d="M38 0v61l82 14v530l-82 14v61h487v-154h-68l-13 66h-218v-197h190l12 49h60v-184h-60l-12 52h-190v-223h239l12 74h68v-163h-507zM130 799q0 23 17.5 40t42.5 17q26 0 43.5 -17t17.5 -40t-17.5 -40t-43.5 -17q-25 0 -42.5 17t-17.5 40zM357 799q0 23 17.5 40t42.5 17
q26 0 43.5 -17t17.5 -40t-17.5 -40t-43.5 -17q-25 0 -42.5 17t-17.5 40z" />
    <glyph glyph-name="Igrave" unicode="&#xcc;" horiz-adv-x="345" 
d="M226 75l81 -14v-61h-269v61l82 14v530l-82 14v61h269v-61l-81 -14v-530zM155 744l-167 114h124l127 -114h-84z" />
    <glyph glyph-name="Iacute" unicode="&#xcd;" horiz-adv-x="345" 
d="M226 75l81 -14v-61h-269v61l82 14v530l-82 14v61h269v-61l-81 -14v-530zM115 744l127 114h124l-167 -114h-84z" />
    <glyph glyph-name="Icircumflex" unicode="&#xce;" horiz-adv-x="345" 
d="M226 75l81 -14v-61h-269v61l82 14v530l-82 14v61h269v-61l-81 -14v-530zM2 744l131 114h79l133 -114h-96l-75 73h-2l-73 -73h-97z" />
    <glyph glyph-name="Idieresis" unicode="&#xcf;" horiz-adv-x="345" 
d="M226 75l81 -14v-61h-269v61l82 14v530l-82 14v61h269v-61l-81 -14v-530zM0 799q0 23 17.5 40t42.5 17q26 0 43.5 -17t17.5 -40t-17.5 -40t-43.5 -17q-25 0 -42.5 17t-17.5 40zM227 799q0 23 17.5 40t42.5 17q26 0 43.5 -17t17.5 -40t-17.5 -40t-43.5 -17q-25 0 -42.5 17
t-17.5 40z" />
    <glyph glyph-name="Eth" unicode="&#xd0;" horiz-adv-x="672" 
d="M54 388h66v217l-82 14v61h290q66 0 121 -22.5t95 -65.5t62.5 -106t22.5 -143q0 -81 -21 -144.5t-61 -108t-96.5 -67.5t-126.5 -23h-286v61l82 14v234h-66v79zM521 340q0 60 -14.5 106.5t-41 78.5t-63 49t-80.5 17h-96v-203h122v-79h-122v-220h96q45 0 81.5 16.5
t62.5 48.5t40.5 79t14.5 107z" />
    <glyph glyph-name="Ntilde" unicode="&#xd1;" horiz-adv-x="735" 
d="M532 0l-194 306q-15 23 -31 49.5t-31.5 52t-29 48.5t-22.5 39h-2q1 -13 1.5 -34t1 -46t1 -52.5t0.5 -52.5v-235l79 -14v-61h-267v62l82 13v530l-82 13v62h177l195 -308q12 -20 27.5 -44.5t30.5 -50t29 -50t25 -43.5h2q-1 10 -1.5 30t-1 45.5t-1 54t-0.5 57.5v234l-79 14
v61h267v-61l-82 -14v-605h-94zM538 796q-29 -21 -54.5 -34.5t-59.5 -13.5q-21 0 -36.5 6t-28 13.5t-25 13.5t-28.5 6q-20 0 -35.5 -9.5t-41.5 -26.5l-35 51q29 20 54 33.5t58 13.5q22 0 37 -6.5t27.5 -14t24.5 -13.5t29 -6q19 0 35 9.5t41 26.5l38 -49v0z" />
    <glyph glyph-name="Ograve" unicode="&#xd2;" horiz-adv-x="666" 
d="M624 340q0 -83 -20.5 -148t-58 -110t-91.5 -69t-121 -24t-121 24t-91.5 69t-57.5 110t-20 148q0 82 20.5 147t58 110.5t91 69.5t120.5 24t120.5 -24t91.5 -69.5t58.5 -110.5t20.5 -147zM515 340q0 60 -13 108t-37 81.5t-57.5 51.5t-74.5 18t-74.5 -18t-57.5 -51.5
t-37 -81.5t-13 -108q0 -123 49 -191t133 -68t133 68t49 191zM314 744l-167 114h124l127 -114h-84z" />
    <glyph glyph-name="Oacute" unicode="&#xd3;" horiz-adv-x="666" 
d="M624 340q0 -83 -20.5 -148t-58 -110t-91.5 -69t-121 -24t-121 24t-91.5 69t-57.5 110t-20 148q0 82 20.5 147t58 110.5t91 69.5t120.5 24t120.5 -24t91.5 -69.5t58.5 -110.5t20.5 -147zM515 340q0 60 -13 108t-37 81.5t-57.5 51.5t-74.5 18t-74.5 -18t-57.5 -51.5
t-37 -81.5t-13 -108q0 -123 49 -191t133 -68t133 68t49 191zM274 744l127 114h124l-167 -114h-84z" />
    <glyph glyph-name="Ocircumflex" unicode="&#xd4;" horiz-adv-x="666" 
d="M624 340q0 -83 -20.5 -148t-58 -110t-91.5 -69t-121 -24t-121 24t-91.5 69t-57.5 110t-20 148q0 82 20.5 147t58 110.5t91 69.5t120.5 24t120.5 -24t91.5 -69.5t58.5 -110.5t20.5 -147zM515 340q0 60 -13 108t-37 81.5t-57.5 51.5t-74.5 18t-74.5 -18t-57.5 -51.5
t-37 -81.5t-13 -108q0 -123 49 -191t133 -68t133 68t49 191zM161 744l131 114h79l133 -114h-96l-75 73h-2l-73 -73h-97z" />
    <glyph glyph-name="Otilde" unicode="&#xd5;" horiz-adv-x="666" 
d="M624 340q0 -83 -20.5 -148t-58 -110t-91.5 -69t-121 -24t-121 24t-91.5 69t-57.5 110t-20 148q0 82 20.5 147t58 110.5t91 69.5t120.5 24t120.5 -24t91.5 -69.5t58.5 -110.5t20.5 -147zM515 340q0 60 -13 108t-37 81.5t-57.5 51.5t-74.5 18t-74.5 -18t-57.5 -51.5
t-37 -81.5t-13 -108q0 -123 49 -191t133 -68t133 68t49 191zM505 796q-29 -21 -54.5 -34.5t-59.5 -13.5q-21 0 -36.5 6t-28 13.5t-25 13.5t-28.5 6q-20 0 -35.5 -9.5t-41.5 -26.5l-35 51q29 20 54 33.5t58 13.5q22 0 37 -6.5t27.5 -14t24.5 -13.5t29 -6q19 0 35 9.5t41 26.5
l38 -49v0z" />
    <glyph glyph-name="Odieresis" unicode="&#xd6;" horiz-adv-x="666" 
d="M624 340q0 -83 -20.5 -148t-58 -110t-91.5 -69t-121 -24t-121 24t-91.5 69t-57.5 110t-20 148q0 82 20.5 147t58 110.5t91 69.5t120.5 24t120.5 -24t91.5 -69.5t58.5 -110.5t20.5 -147zM515 340q0 60 -13 108t-37 81.5t-57.5 51.5t-74.5 18t-74.5 -18t-57.5 -51.5
t-37 -81.5t-13 -108q0 -123 49 -191t133 -68t133 68t49 191zM159 799q0 23 17.5 40t42.5 17q26 0 43.5 -17t17.5 -40t-17.5 -40t-43.5 -17q-25 0 -42.5 17t-17.5 40zM386 799q0 23 17.5 40t42.5 17q26 0 43.5 -17t17.5 -40t-17.5 -40t-43.5 -17q-25 0 -42.5 17t-17.5 40z
" />
    <glyph glyph-name="multiply" unicode="&#xd7;" 
d="M263 228l-151 -152l-51 50l153 152l-151 149l51 51l149 -151l148 149l51 -50l-149 -148l150 -150l-50 -50z" />
    <glyph glyph-name="Oslash" unicode="&#xd8;" horiz-adv-x="672" 
d="M111 99q-32 45 -50 105t-18 136q0 82 21 147t59 110.5t92.5 69.5t120.5 24q52 0 95 -16t77 -46l61 82l60 -40l-69 -92q32 -45 50.5 -104.5t18.5 -134.5q0 -83 -20.5 -148t-59 -110t-92.5 -69t-121 -24q-104 0 -173 60l-60 -81l-60 40zM151 340q0 -40 8 -77t21 -63h2
l267 348q-21 24 -49.5 37.5t-63.5 13.5q-41 0 -75 -18t-58.5 -51.5t-38 -81.5t-13.5 -108zM522 340q0 16 -2.5 35t-6.5 38t-10 36.5t-12 30.5h-2l-268 -349q44 -50 115 -50q42 0 76.5 17.5t58.5 51t37.5 81.5t13.5 109z" />
    <glyph glyph-name="Ugrave" unicode="&#xd9;" horiz-adv-x="704" 
d="M600 218q0 -110 -65.5 -169.5t-182.5 -59.5q-116 0 -182 59.5t-66 169.5v387l-82 14v61h261v-61l-73 -15v-377q0 -65 34 -105.5t108 -40.5t108 40.5t34 105.5v378l-74 14v61h261v-61l-81 -14v-387v0zM332 744l-167 114h124l127 -114h-84z" />
    <glyph glyph-name="Uacute" unicode="&#xda;" horiz-adv-x="704" 
d="M600 218q0 -110 -65.5 -169.5t-182.5 -59.5q-116 0 -182 59.5t-66 169.5v387l-82 14v61h261v-61l-73 -15v-377q0 -65 34 -105.5t108 -40.5t108 40.5t34 105.5v378l-74 14v61h261v-61l-81 -14v-387v0zM292 744l127 114h124l-167 -114h-84z" />
    <glyph glyph-name="Ucircumflex" unicode="&#xdb;" horiz-adv-x="704" 
d="M600 218q0 -110 -65.5 -169.5t-182.5 -59.5q-116 0 -182 59.5t-66 169.5v387l-82 14v61h261v-61l-73 -15v-377q0 -65 34 -105.5t108 -40.5t108 40.5t34 105.5v378l-74 14v61h261v-61l-81 -14v-387v0zM179 744l131 114h79l133 -114h-96l-75 73h-2l-73 -73h-97z" />
    <glyph glyph-name="Udieresis" unicode="&#xdc;" horiz-adv-x="704" 
d="M600 218q0 -110 -65.5 -169.5t-182.5 -59.5q-116 0 -182 59.5t-66 169.5v387l-82 14v61h261v-61l-73 -15v-377q0 -65 34 -105.5t108 -40.5t108 40.5t34 105.5v378l-74 14v61h261v-61l-81 -14v-387v0zM177 799q0 23 17.5 40t42.5 17q26 0 43.5 -17t17.5 -40t-17.5 -40
t-43.5 -17q-25 0 -42.5 17t-17.5 40zM404 799q0 23 17.5 40t42.5 17q26 0 43.5 -17t17.5 -40t-17.5 -40t-43.5 -17q-25 0 -42.5 17t-17.5 40z" />
    <glyph glyph-name="Yacute" unicode="&#xdd;" horiz-adv-x="624" 
d="M365 237v-162l82 -14v-61h-270v61l82 14v162l-177 368l-74 14v61h254v-63l-66 -12l39 -89q10 -22 20.5 -48l21 -52t20 -49.5t15.5 -40.5h2q6 18 15.5 42t19.5 49.5t21 50.5t20 46l39 89l-66 13v64h253v-61l-74 -14zM253 744l127 114h124l-167 -114h-84z" />
    <glyph glyph-name="Thorn" unicode="&#xde;" horiz-adv-x="585" 
d="M563 354q0 -99 -58 -149.5t-161 -50.5h-118v-79l81 -14v-61h-269v61l82 14v530l-82 14v61h269v-61l-81 -14v-66h104q112 0 172.5 -47t60.5 -138zM455 354q0 43 -30 72.5t-95 29.5h-104v-219h115q31 0 53 10t35.5 26.5t19.5 37.5t6 43z" />
    <glyph glyph-name="germandbls" unicode="&#xdf;" horiz-adv-x="646" 
d="M617 153q0 -40 -15 -70t-40 -50.5t-58 -31t-68 -10.5q-28 0 -56 4.5t-54 11.5v148h60l13 -73q11 -2 21 -3.5t22 -1.5q30 0 54 18.5t24 55.5q0 22 -12.5 38.5t-31.5 30t-40.5 26t-40.5 28.5q-23 20 -39 47.5t-16 65.5q0 31 13.5 52t29.5 39.5t29.5 37.5t13.5 46
q0 43 -31 64.5t-76 21.5q-42 0 -72 -24t-30 -66v-483l72 -14v-61h-255v61l82 14v337h-66v84h66v74q0 39 17 69t44.5 50.5t62.5 31t71 10.5q38 0 75 -9.5t66.5 -29t48 -50t18.5 -73.5q0 -36 -13 -59t-29 -41.5t-29 -36.5t-13 -44q0 -22 11 -38t27.5 -29.5t36 -25t37.5 -24.5
q27 -20 48.5 -47.5t21.5 -70.5z" />
    <glyph glyph-name="agrave" unicode="&#xe0;" horiz-adv-x="537" 
d="M405 -2h-52l-13 52h-2q-26 -16 -44 -27.5t-33.5 -19t-31 -11t-34.5 -3.5q-30 0 -57.5 9t-48 27.5t-33 47.5t-12.5 69q0 43 11.5 73t31 49t46.5 28t57 9q32 0 68 -8t75 -10v53q0 52 -22.5 70t-70.5 18q-19 0 -43.5 -4.5t-44.5 -12.5l-12 -55h-65v117q48 15 90 25.5
t90 10.5q50 0 84.5 -11.5t55.5 -33t30 -52t9 -67.5v-221q0 -10 1 -22t3 -20l78 -10v-54zM333 225q-30 2 -62.5 7.5t-51.5 5.5q-33 0 -55 -19.5t-22 -69.5q0 -37 19 -61.5t61 -24.5q14 0 24.5 2.5t22 8t26.5 14t38 21.5v116zM231 581l-134 125h114l96 -125h-76z" />
    <glyph glyph-name="aacute" unicode="&#xe1;" horiz-adv-x="537" 
d="M405 -2h-52l-13 52h-2q-26 -16 -44 -27.5t-33.5 -19t-31 -11t-34.5 -3.5q-30 0 -57.5 9t-48 27.5t-33 47.5t-12.5 69q0 43 11.5 73t31 49t46.5 28t57 9q32 0 68 -8t75 -10v53q0 52 -22.5 70t-70.5 18q-19 0 -43.5 -4.5t-44.5 -12.5l-12 -55h-65v117q48 15 90 25.5
t90 10.5q50 0 84.5 -11.5t55.5 -33t30 -52t9 -67.5v-221q0 -10 1 -22t3 -20l78 -10v-54zM333 225q-30 2 -62.5 7.5t-51.5 5.5q-33 0 -55 -19.5t-22 -69.5q0 -37 19 -61.5t61 -24.5q14 0 24.5 2.5t22 8t26.5 14t38 21.5v116zM205 581l96 125h114l-134 -125h-76z" />
    <glyph glyph-name="acircumflex" unicode="&#xe2;" horiz-adv-x="537" 
d="M405 -2h-52l-13 52h-2q-26 -16 -44 -27.5t-33.5 -19t-31 -11t-34.5 -3.5q-30 0 -57.5 9t-48 27.5t-33 47.5t-12.5 69q0 43 11.5 73t31 49t46.5 28t57 9q32 0 68 -8t75 -10v53q0 52 -22.5 70t-70.5 18q-19 0 -43.5 -4.5t-44.5 -12.5l-12 -55h-65v117q48 15 90 25.5
t90 10.5q50 0 84.5 -11.5t55.5 -33t30 -52t9 -67.5v-221q0 -10 1 -22t3 -20l78 -10v-54zM333 225q-30 2 -62.5 7.5t-51.5 5.5q-33 0 -55 -19.5t-22 -69.5q0 -37 19 -61.5t61 -24.5q14 0 24.5 2.5t22 8t26.5 14t38 21.5v116zM110 581l110 125h72l110 -125h-83l-62 83h-2
l-62 -83h-83z" />
    <glyph glyph-name="atilde" unicode="&#xe3;" horiz-adv-x="537" 
d="M405 -2h-52l-13 52h-2q-26 -16 -44 -27.5t-33.5 -19t-31 -11t-34.5 -3.5q-30 0 -57.5 9t-48 27.5t-33 47.5t-12.5 69q0 43 11.5 73t31 49t46.5 28t57 9q32 0 68 -8t75 -10v53q0 52 -22.5 70t-70.5 18q-19 0 -43.5 -4.5t-44.5 -12.5l-12 -55h-65v117q48 15 90 25.5
t90 10.5q50 0 84.5 -11.5t55.5 -33t30 -52t9 -67.5v-221q0 -10 1 -22t3 -20l78 -10v-54zM333 225q-30 2 -62.5 7.5t-51.5 5.5q-33 0 -55 -19.5t-22 -69.5q0 -37 19 -61.5t61 -24.5q14 0 24.5 2.5t22 8t26.5 14t38 21.5v116zM411 640q-26 -23 -49.5 -38t-53.5 -15
q-19 0 -32.5 6.5t-25.5 15t-23 15t-26 6.5q-17 0 -31 -10.5t-37 -28.5l-33 53q26 22 49 36t52 14q20 0 34 -6.5t25 -14.5t22 -14.5t26 -6.5q17 0 31.5 9.5t36.5 29.5l35 -51v0z" />
    <glyph glyph-name="adieresis" unicode="&#xe4;" horiz-adv-x="537" 
d="M405 -2h-52l-13 52h-2q-26 -16 -44 -27.5t-33.5 -19t-31 -11t-34.5 -3.5q-30 0 -57.5 9t-48 27.5t-33 47.5t-12.5 69q0 43 11.5 73t31 49t46.5 28t57 9q32 0 68 -8t75 -10v53q0 52 -22.5 70t-70.5 18q-19 0 -43.5 -4.5t-44.5 -12.5l-12 -55h-65v117q48 15 90 25.5
t90 10.5q50 0 84.5 -11.5t55.5 -33t30 -52t9 -67.5v-221q0 -10 1 -22t3 -20l78 -10v-54zM333 225q-30 2 -62.5 7.5t-51.5 5.5q-33 0 -55 -19.5t-22 -69.5q0 -37 19 -61.5t61 -24.5q14 0 24.5 2.5t22 8t26.5 14t38 21.5v116zM97 642q0 23 17 39.5t42 16.5q26 0 43.5 -16.5
t17.5 -39.5t-17.5 -40t-43.5 -17q-25 0 -42 17t-17 40zM295 642q0 23 17.5 39.5t42.5 16.5t42.5 -16.5t17.5 -39.5t-17.5 -40t-42.5 -17t-42.5 17t-17.5 40z" />
    <glyph glyph-name="aring" unicode="&#xe5;" horiz-adv-x="537" 
d="M405 -2h-52l-13 52h-2q-26 -16 -44 -27.5t-33.5 -19t-31 -11t-34.5 -3.5q-30 0 -57.5 9t-48 27.5t-33 47.5t-12.5 69q0 43 11.5 73t31 49t46.5 28t57 9q32 0 68 -8t75 -10v53q0 52 -22.5 70t-70.5 18q-19 0 -43.5 -4.5t-44.5 -12.5l-12 -55h-65v117q48 15 90 25.5
t90 10.5q50 0 84.5 -11.5t55.5 -33t30 -52t9 -67.5v-221q0 -10 1 -22t3 -20l78 -10v-54zM333 225q-30 2 -62.5 7.5t-51.5 5.5q-33 0 -55 -19.5t-22 -69.5q0 -37 19 -61.5t61 -24.5q14 0 24.5 2.5t22 8t26.5 14t38 21.5v116zM155 652q0 21 8 40t21.5 33.5t32 22.5t39.5 8
t39.5 -8t32 -22.5t21.5 -33.5t8 -40q0 -22 -8 -41t-21.5 -33.5t-32 -22.5t-39.5 -8t-39.5 8t-32 22.5t-21.5 33.5t-8 41zM207 652q0 -25 14 -41.5t35 -16.5q20 0 34 16.5t14 41.5q0 24 -14 40.5t-34 16.5q-21 0 -35 -16.5t-14 -40.5z" />
    <glyph glyph-name="ae" unicode="&#xe6;" horiz-adv-x="789" 
d="M44 141q0 43 11.5 73.5t31 49.5t46.5 28t59 9t69 -9t77 -11v57q0 50 -27 68t-70 18q-24 0 -44.5 -4.5t-44.5 -12.5l-12 -55h-65v117q48 15 89.5 25.5t89.5 10.5q60 0 93.5 -26.5t41.5 -61.5h2q9 19 25.5 35.5t37.5 28.5t45 19t48 7q106 0 155 -63.5t49 -186.5v-24h-327
q0 -40 11 -70.5t30 -51t45.5 -31t56.5 -10.5q45 0 78 6t65 15l18 -78q-35 -10 -72.5 -16t-87.5 -6q-67 0 -115 26t-68 63h-2q-26 -42 -75 -66.5t-112 -24.5q-30 0 -57.5 8.5t-48.5 27t-33.5 47.5t-12.5 69zM142 149q0 -37 18.5 -61.5t60.5 -24.5q17 0 36.5 6t38.5 15.5
t35.5 21t26.5 23.5q-7 15 -12.5 41t-7.5 53q-15 1 -32 3.5t-33 5t-30.5 4.5t-23.5 2q-35 0 -56 -20t-21 -69zM664 299q0 58 -28.5 96.5t-85.5 38.5q-48 0 -83.5 -36t-40.5 -99h238z" />
    <glyph glyph-name="ccedilla" unicode="&#xe7;" horiz-adv-x="435" 
d="M351 -127q0 -44 -30.5 -68t-75.5 -24q-26 0 -49 5.5t-39 13.5l19 45q17 -7 33 -11t29 -4q23 0 37.5 10t14.5 30q0 29 -28 37t-71 10l27 80q-87 16 -133 80.5t-46 170.5q0 61 17 108.5t48 80.5t74.5 50.5t96.5 17.5q24 0 55.5 -5t54.5 -11v-143h-61l-12 67q-10 4 -21 5
t-22 1q-27 0 -50 -11t-40 -33t-26.5 -53.5t-9.5 -73.5q0 -84 35 -127.5t101 -43.5q23 0 50 5.5t48 13.5l21 -84q-26 -8 -60.5 -14.5t-60.5 -6.5h-7l-11 -31v-2q38 -3 65 -25.5t27 -59.5z" />
    <glyph glyph-name="egrave" unicode="&#xe8;" horiz-adv-x="499" 
d="M134 233q0 -40 11 -70.5t30.5 -51t46.5 -31t58 -10.5q44 0 76 6t64 15l18 -78q-35 -10 -71 -16t-85 -6q-121 0 -182 68t-61 192q0 60 16 107.5t45 80.5t69.5 50.5t90.5 17.5q103 0 152 -63.5t49 -186.5v-24h-327zM374 300q0 28 -7 52.5t-21 42.5t-35.5 28.5t-50.5 10.5
q-51 0 -85.5 -37t-39.5 -98h239v1zM235 581l-134 125h114l96 -125h-76z" />
    <glyph glyph-name="eacute" unicode="&#xe9;" horiz-adv-x="499" 
d="M134 233q0 -40 11 -70.5t30.5 -51t46.5 -31t58 -10.5q44 0 76 6t64 15l18 -78q-35 -10 -71 -16t-85 -6q-121 0 -182 68t-61 192q0 60 16 107.5t45 80.5t69.5 50.5t90.5 17.5q103 0 152 -63.5t49 -186.5v-24h-327zM374 300q0 28 -7 52.5t-21 42.5t-35.5 28.5t-50.5 10.5
q-51 0 -85.5 -37t-39.5 -98h239v1zM209 581l96 125h114l-134 -125h-76z" />
    <glyph glyph-name="ecircumflex" unicode="&#xea;" horiz-adv-x="499" 
d="M134 233q0 -40 11 -70.5t30.5 -51t46.5 -31t58 -10.5q44 0 76 6t64 15l18 -78q-35 -10 -71 -16t-85 -6q-121 0 -182 68t-61 192q0 60 16 107.5t45 80.5t69.5 50.5t90.5 17.5q103 0 152 -63.5t49 -186.5v-24h-327zM374 300q0 28 -7 52.5t-21 42.5t-35.5 28.5t-50.5 10.5
q-51 0 -85.5 -37t-39.5 -98h239v1zM114 581l110 125h72l110 -125h-83l-62 83h-2l-62 -83h-83z" />
    <glyph glyph-name="edieresis" unicode="&#xeb;" horiz-adv-x="499" 
d="M134 233q0 -40 11 -70.5t30.5 -51t46.5 -31t58 -10.5q44 0 76 6t64 15l18 -78q-35 -10 -71 -16t-85 -6q-121 0 -182 68t-61 192q0 60 16 107.5t45 80.5t69.5 50.5t90.5 17.5q103 0 152 -63.5t49 -186.5v-24h-327zM374 300q0 28 -7 52.5t-21 42.5t-35.5 28.5t-50.5 10.5
q-51 0 -85.5 -37t-39.5 -98h239v1zM101 642q0 23 17 39.5t42 16.5q26 0 43.5 -16.5t17.5 -39.5t-17.5 -40t-43.5 -17q-25 0 -42 17t-17 40zM299 642q0 23 17.5 39.5t42.5 16.5t42.5 -16.5t17.5 -39.5t-17.5 -40t-42.5 -17t-42.5 17t-17.5 40z" />
    <glyph glyph-name="igrave" unicode="&#xec;" horiz-adv-x="323" 
d="M34 0v61l82 14v338l-82 6v59l131 18h52v-421l82 -14v-61h-265zM135 581l-134 125h114l96 -125h-76z" />
    <glyph glyph-name="iacute" unicode="&#xed;" horiz-adv-x="323" 
d="M34 0v61l82 14v338l-82 6v59l131 18h52v-421l82 -14v-61h-265zM109 581l96 125h114l-134 -125h-76z" />
    <glyph glyph-name="icircumflex" unicode="&#xee;" horiz-adv-x="323" 
d="M34 0v61l82 14v338l-82 6v59l131 18h52v-421l82 -14v-61h-265zM14 581l110 125h72l110 -125h-83l-62 83h-2l-62 -83h-83z" />
    <glyph glyph-name="idieresis" unicode="&#xef;" horiz-adv-x="323" 
d="M34 0v61l82 14v338l-82 6v59l131 18h52v-421l82 -14v-61h-265zM1 642q0 23 17 39.5t42 16.5q26 0 43.5 -16.5t17.5 -39.5t-17.5 -40t-43.5 -17q-25 0 -42 17t-17 40zM199 642q0 23 17.5 39.5t42.5 16.5t42.5 -16.5t17.5 -39.5t-17.5 -40t-42.5 -17t-42.5 17t-17.5 40z
" />
    <glyph glyph-name="eth" unicode="&#xf0;" horiz-adv-x="530" 
d="M109 572l105 43v2q-16 14 -42.5 34.5t-47.5 35.5l67 44q24 -15 51.5 -37t48.5 -42l116 51l22 -52l-98 -40v-2q31 -33 60 -73.5t51 -87t35.5 -98.5t13.5 -107q0 -60 -16.5 -107t-46.5 -80t-71.5 -50t-90.5 -17t-90.5 17t-72 49.5t-47.5 80t-17 107.5q0 58 16 104
t45.5 78.5t69.5 50t88 17.5q19 0 36.5 -3.5t28.5 -11.5l2 1q-13 22 -31 46.5t-41 47.5l-122 -52zM143 243q0 -83 33.5 -125t88.5 -42t89 42t34 125q0 35 -7.5 65.5t-22.5 53.5t-38 36t-54 13q-58 0 -90.5 -44t-32.5 -124z" />
    <glyph glyph-name="ntilde" unicode="&#xf1;" horiz-adv-x="623" 
d="M355 0v61l61 14v257q0 49 -20 70t-48 21q-42 0 -73 -21.5t-58 -56.5v-270l67 -14v-61h-250v61l82 14v338l-82 6v59l131 18h41l6 -77h2q22 37 66.5 62.5t96.5 25.5q29 0 54.5 -9t44.5 -28.5t30 -50t11 -73.5v-271l82 -14v-61h-244zM462 640q-26 -23 -49.5 -38t-53.5 -15
q-19 0 -32.5 6.5t-25.5 15t-23 15t-26 6.5q-17 0 -31 -10.5t-37 -28.5l-33 53q26 22 49 36t52 14q20 0 34 -6.5t25 -14.5t22 -14.5t26 -6.5q17 0 31.5 9.5t36.5 29.5l35 -51v0z" />
    <glyph glyph-name="ograve" unicode="&#xf2;" horiz-adv-x="531" 
d="M266 -11q-51 0 -93 18t-71.5 51.5t-46 81.5t-16.5 108q0 61 16.5 109t46 81.5t71.5 51t93 17.5t92.5 -17.5t71 -51t46 -81.5t16.5 -109q0 -60 -16.5 -108t-46 -81.5t-71 -51.5t-92.5 -18zM266 76q58 0 90.5 44.5t32.5 127.5q0 85 -32.5 128.5t-90.5 43.5q-59 0 -91 -43.5
t-32 -128.5q0 -83 32 -127.5t91 -44.5zM240 581l-134 125h114l96 -125h-76z" />
    <glyph glyph-name="oacute" unicode="&#xf3;" horiz-adv-x="531" 
d="M266 -11q-51 0 -93 18t-71.5 51.5t-46 81.5t-16.5 108q0 61 16.5 109t46 81.5t71.5 51t93 17.5t92.5 -17.5t71 -51t46 -81.5t16.5 -109q0 -60 -16.5 -108t-46 -81.5t-71 -51.5t-92.5 -18zM266 76q58 0 90.5 44.5t32.5 127.5q0 85 -32.5 128.5t-90.5 43.5q-59 0 -91 -43.5
t-32 -128.5q0 -83 32 -127.5t91 -44.5zM214 581l96 125h114l-134 -125h-76z" />
    <glyph glyph-name="ocircumflex" unicode="&#xf4;" horiz-adv-x="531" 
d="M266 -11q-51 0 -93 18t-71.5 51.5t-46 81.5t-16.5 108q0 61 16.5 109t46 81.5t71.5 51t93 17.5t92.5 -17.5t71 -51t46 -81.5t16.5 -109q0 -60 -16.5 -108t-46 -81.5t-71 -51.5t-92.5 -18zM266 76q58 0 90.5 44.5t32.5 127.5q0 85 -32.5 128.5t-90.5 43.5q-59 0 -91 -43.5
t-32 -128.5q0 -83 32 -127.5t91 -44.5zM119 581l110 125h72l110 -125h-83l-62 83h-2l-62 -83h-83z" />
    <glyph glyph-name="otilde" unicode="&#xf5;" horiz-adv-x="531" 
d="M266 -11q-51 0 -93 18t-71.5 51.5t-46 81.5t-16.5 108q0 61 16.5 109t46 81.5t71.5 51t93 17.5t92.5 -17.5t71 -51t46 -81.5t16.5 -109q0 -60 -16.5 -108t-46 -81.5t-71 -51.5t-92.5 -18zM266 76q58 0 90.5 44.5t32.5 127.5q0 85 -32.5 128.5t-90.5 43.5q-59 0 -91 -43.5
t-32 -128.5q0 -83 32 -127.5t91 -44.5zM420 640q-26 -23 -49.5 -38t-53.5 -15q-19 0 -32.5 6.5t-25.5 15t-23 15t-26 6.5q-17 0 -31 -10.5t-37 -28.5l-33 53q26 22 49 36t52 14q20 0 34 -6.5t25 -14.5t22 -14.5t26 -6.5q17 0 31.5 9.5t36.5 29.5l35 -51v0z" />
    <glyph glyph-name="odieresis" unicode="&#xf6;" horiz-adv-x="531" 
d="M266 -11q-51 0 -93 18t-71.5 51.5t-46 81.5t-16.5 108q0 61 16.5 109t46 81.5t71.5 51t93 17.5t92.5 -17.5t71 -51t46 -81.5t16.5 -109q0 -60 -16.5 -108t-46 -81.5t-71 -51.5t-92.5 -18zM266 76q58 0 90.5 44.5t32.5 127.5q0 85 -32.5 128.5t-90.5 43.5q-59 0 -91 -43.5
t-32 -128.5q0 -83 32 -127.5t91 -44.5zM106 642q0 23 17 39.5t42 16.5q26 0 43.5 -16.5t17.5 -39.5t-17.5 -40t-43.5 -17q-25 0 -42 17t-17 40zM304 642q0 23 17.5 39.5t42.5 16.5t42.5 -16.5t17.5 -39.5t-17.5 -40t-42.5 -17t-42.5 17t-17.5 40z" />
    <glyph glyph-name="divide" unicode="&#xf7;" 
d="M320 439q0 -25 -17 -42t-41 -17q-25 0 -41.5 17t-16.5 42q0 24 16.5 42t41.5 18q24 0 41 -18t17 -42zM320 116q0 -25 -17 -42t-41 -17q-25 0 -41.5 17t-16.5 42q0 24 16.5 42.5t41.5 18.5q24 0 41 -18.5t17 -42.5zM40 243v71h444v-71h-444z" />
    <glyph glyph-name="oslash" unicode="&#xf8;" horiz-adv-x="537" 
d="M39 248q0 61 17 109t47 81.5t72.5 51t93.5 17.5q72 0 126 -37l43 60l39 -29l-45 -63q32 -34 49 -81t17 -109q0 -60 -17 -108t-47 -81.5t-72 -51.5t-93 -18q-74 0 -130 39l-43 -61l-39 29l45 64q-30 34 -46.5 81t-16.5 107zM397 248q0 30 -7 57.5t-18 47.5h-2l-180 -251
q31 -29 79 -29q59 0 93.5 45t34.5 130zM140 248q0 -60 22 -102h2l180 250q-32 27 -75 27q-60 0 -94.5 -44.5t-34.5 -130.5z" />
    <glyph glyph-name="ugrave" unicode="&#xf9;" horiz-adv-x="600" 
d="M460 -2h-53l-9 71h-2q-24 -38 -65 -59t-92 -21q-29 0 -54.5 9t-44 28.5t-29 49.5t-10.5 73v264l-82 6v58l131 19h52v-333q0 -48 18 -69t47 -21q42 0 70.5 17t55.5 52v271l-71 6v58l120 19h52v-418l82 -10v-54zM260 581l-134 125h114l96 -125h-76z" />
    <glyph glyph-name="uacute" unicode="&#xfa;" horiz-adv-x="600" 
d="M460 -2h-53l-9 71h-2q-24 -38 -65 -59t-92 -21q-29 0 -54.5 9t-44 28.5t-29 49.5t-10.5 73v264l-82 6v58l131 19h52v-333q0 -48 18 -69t47 -21q42 0 70.5 17t55.5 52v271l-71 6v58l120 19h52v-418l82 -10v-54zM234 581l96 125h114l-134 -125h-76z" />
    <glyph glyph-name="ucircumflex" unicode="&#xfb;" horiz-adv-x="600" 
d="M460 -2h-53l-9 71h-2q-24 -38 -65 -59t-92 -21q-29 0 -54.5 9t-44 28.5t-29 49.5t-10.5 73v264l-82 6v58l131 19h52v-333q0 -48 18 -69t47 -21q42 0 70.5 17t55.5 52v271l-71 6v58l120 19h52v-418l82 -10v-54zM139 581l110 125h72l110 -125h-83l-62 83h-2l-62 -83h-83z
" />
    <glyph glyph-name="udieresis" unicode="&#xfc;" horiz-adv-x="600" 
d="M460 -2h-53l-9 71h-2q-24 -38 -65 -59t-92 -21q-29 0 -54.5 9t-44 28.5t-29 49.5t-10.5 73v264l-82 6v58l131 19h52v-333q0 -48 18 -69t47 -21q42 0 70.5 17t55.5 52v271l-71 6v58l120 19h52v-418l82 -10v-54zM126 642q0 23 17 39.5t42 16.5q26 0 43.5 -16.5t17.5 -39.5
t-17.5 -40t-43.5 -17q-25 0 -42 17t-17 40zM324 642q0 23 17.5 39.5t42.5 16.5t42.5 -16.5t17.5 -39.5t-17.5 -40t-42.5 -17t-42.5 17t-17.5 40z" />
    <glyph glyph-name="yacute" unicode="&#xfd;" horiz-adv-x="594" 
d="M380 83q-28 -68 -60.5 -124t-67.5 -91l-97 -96l-58 59l67 71q23 24 41 48t35 59l-158 413l-74 12v62h242v-66l-65 -8l48 -135q8 -23 17.5 -50t18 -53t15.5 -49.5t12 -39.5h2q5 16 12.5 39.5t16.5 50t18.5 53.5t17.5 50l48 133l-65 9v66h240v-62l-75 -12zM246 581l96 125
h114l-134 -125h-76z" />
    <glyph glyph-name="thorn" unicode="&#xfe;" horiz-adv-x="563" 
d="M524 247q0 -60 -15 -107.5t-42.5 -81t-66 -51.5t-86.5 -18q-41 0 -73.5 16.5t-53.5 40.5h-2v-181l82 -14v-61h-265v61l82 14v772l-82 6v59l131 18h52v-298h2q23 33 57 59t81 26q99 0 149 -66.5t50 -193.5zM420 247q0 93 -32.5 133.5t-91.5 40.5q-15 0 -30.5 -7
t-30.5 -17.5t-28 -24t-22 -25.5v-221q17 -20 47.5 -35.5t57.5 -15.5q28 0 51.5 10t41 31t27.5 53.5t10 77.5z" />
    <glyph glyph-name="ydieresis" unicode="&#xff;" horiz-adv-x="594" 
d="M380 83q-28 -68 -60.5 -124t-67.5 -91l-97 -96l-58 59l67 71q23 24 41 48t35 59l-158 413l-74 12v62h242v-66l-65 -8l48 -135q8 -23 17.5 -50t18 -53t15.5 -49.5t12 -39.5h2q5 16 12.5 39.5t16.5 50t18.5 53.5t17.5 50l48 133l-65 9v66h240v-62l-75 -12zM138 642
q0 23 17 39.5t42 16.5q26 0 43.5 -16.5t17.5 -39.5t-17.5 -40t-43.5 -17q-25 0 -42 17t-17 40zM336 642q0 23 17.5 39.5t42.5 16.5t42.5 -16.5t17.5 -39.5t-17.5 -40t-42.5 -17t-42.5 17t-17.5 40z" />
    <glyph glyph-name="dotlessi" unicode="&#x131;" horiz-adv-x="323" 
d="M34 0v61l82 14v338l-82 6v59l131 18h52v-421l82 -14v-61h-265z" />
    <glyph glyph-name="OE" unicode="&#x152;" horiz-adv-x="909" 
d="M43 340q0 82 20.5 147t58 110.5t91.5 69.5t121 24q29 0 58 -3t46 -8h405v-154h-68l-12 66h-220v-197h192l11 49h60v-184h-60l-11 52h-192v-223h240l12 74h69v-163h-426q-22 -5 -50 -8t-54 -3q-68 0 -121.5 24t-91.5 69t-58 110t-20 148zM151 340q0 -123 49.5 -191
t133.5 -68q27 0 55.5 2.5t48.5 7.5v495q-38 14 -104 14q-41 0 -74.5 -18t-57.5 -51.5t-37.5 -82t-13.5 -108.5z" />
    <glyph glyph-name="oe" unicode="&#x153;" horiz-adv-x="842" 
d="M39 248q0 61 16.5 109t46.5 81.5t72 51t93 17.5q57 0 99.5 -27t64.5 -74h2q10 23 28 41.5t40.5 32t48.5 20.5t53 7q103 0 152 -64t49 -186v-24h-327q0 -41 11.5 -71.5t31 -50.5t45.5 -30.5t56 -10.5q45 0 77.5 6t64.5 15l18 -78q-35 -10 -71.5 -16t-86.5 -6
q-33 0 -63.5 7t-55.5 20t-43.5 31.5t-27.5 41.5h-2q-20 -45 -63.5 -73.5t-100.5 -28.5q-51 0 -93 18t-72 51.5t-46.5 81.5t-16.5 108zM143 248q0 -83 33 -127.5t90 -44.5q58 0 88 44t30 130q0 87 -30.5 128.5t-87.5 41.5t-90 -43.5t-33 -128.5zM717 299q0 58 -29 96.5
t-86 38.5q-49 0 -84 -36t-40 -99h239z" />
    <glyph glyph-name="Scaron" unicode="&#x160;" horiz-adv-x="525" 
d="M484 199q0 -47 -15.5 -85.5t-45.5 -65.5t-73.5 -42t-98.5 -15q-54 0 -104.5 10.5t-106.5 30.5v154h70l13 -84q24 -8 59.5 -15t68.5 -7q25 0 47.5 7.5t39.5 21.5t27 34.5t10 47.5q0 48 -29.5 73.5t-88.5 42.5q-36 11 -72 24.5t-65.5 35.5t-47.5 55t-18 83q0 41 16 75
t45 58t70 37.5t92 13.5q42 0 79.5 -7t78.5 -20v-150h-68l-15 78q-36 12 -77 12q-54 0 -83.5 -26.5t-29.5 -67.5q0 -24 9.5 -40t27 -27.5t41 -20t51.5 -16.5q37 -11 71.5 -26.5t61.5 -39t43.5 -57.5t16.5 -82zM193 858l73 -74h2l75 74h96l-133 -114h-79l-131 114h97z" />
    <glyph glyph-name="scaron" unicode="&#x161;" horiz-adv-x="431" 
d="M388 147q0 -73 -51 -114.5t-135 -41.5q-41 0 -79.5 6t-80.5 20v133h62l13 -63q26 -8 46 -11t34 -3q18 0 35 4.5t30.5 13t21.5 22t8 31.5q0 19 -6.5 31.5t-17.5 21t-26.5 14.5t-33.5 11q-29 8 -56 18.5t-48 26.5t-33.5 40t-12.5 60q0 31 12.5 57t35 44.5t53.5 28.5t69 10
q30 0 65 -5.5t67 -16.5v-119h-61l-12 56q-11 3 -23.5 5t-25.5 2q-39 0 -60.5 -17t-21.5 -43q0 -18 6.5 -29t19.5 -18.5t30.5 -12.5t40.5 -12q22 -6 46 -16t43.5 -27t32.5 -43t13 -64zM159 706l62 -84h2l62 84h83l-110 -125h-72l-110 125h83z" />
    <glyph glyph-name="Ydieresis" unicode="&#x178;" horiz-adv-x="624" 
d="M365 237v-162l82 -14v-61h-270v61l82 14v162l-177 368l-74 14v61h254v-63l-66 -12l39 -89q10 -22 20.5 -48l21 -52t20 -49.5t15.5 -40.5h2q6 18 15.5 42t19.5 49.5t21 50.5t20 46l39 89l-66 13v64h253v-61l-74 -14zM138 799q0 23 17.5 40t42.5 17q26 0 43.5 -17t17.5 -40
t-17.5 -40t-43.5 -17q-25 0 -42.5 17t-17.5 40zM365 799q0 23 17.5 40t42.5 17q26 0 43.5 -17t17.5 -40t-17.5 -40t-43.5 -17q-25 0 -42.5 17t-17.5 40z" />
    <glyph glyph-name="Zcaron" unicode="&#x17d;" horiz-adv-x="529" 
d="M36 0v81l237 381q8 13 19 29t23 33.5t24 34t22 30.5v2h-217l-15 -80h-68v169h417v-82l-233 -369q-9 -14 -20.5 -31.5t-23.5 -36.5t-24 -37l-22 -33v-2h257l13 85h70v-174h-459zM198 858l73 -74h2l75 74h96l-133 -114h-79l-131 114h97z" />
    <glyph glyph-name="zcaron" unicode="&#x17e;" horiz-adv-x="473" 
d="M40 0v76l174 224q9 12 20.5 26t24 29t25 29.5t22.5 25.5v2h-178l-12 -64h-60v148h369v-76l-197 -249q-17 -22 -36 -44t-35 -41v-2h200l13 70h62v-154h-392zM180 706l62 -84h2l62 84h83l-110 -125h-72l-110 125h83z" />
    <glyph glyph-name="florin" unicode="&#x192;" 
d="M143 420h69l25 146q5 27 19 46.5t34 31.5t43.5 18t47.5 6q26 0 51 -5.5t49 -12.5l-29 -79q-20 6 -35 9t-34 3q-17 0 -32 -10t-19 -30l-21 -123h100v-84h-113l-39 -234q-8 -51 -20 -94.5t-31 -75.5t-47 -50.5t-68 -18.5q-17 0 -38 2t-36 7l17 74q8 -2 19 -3t19 -1
q20 0 34.5 14t25 38.5t17.5 57.5t13 72l34 212h-55v84z" />
    <glyph glyph-name="circumflex" unicode="&#x2c6;" horiz-adv-x="440" 
d="M74 581l110 125h72l110 -125h-83l-62 83h-2l-62 -83h-83z" />
    <glyph glyph-name="caron" unicode="&#x2c7;" horiz-adv-x="440" 
d="M157 706l62 -84h2l62 84h83l-110 -125h-72l-110 125h83z" />
    <glyph glyph-name="ring" unicode="&#x2da;" horiz-adv-x="440" 
d="M119 652q0 21 8 40t21.5 33.5t32 22.5t39.5 8t39.5 -8t32 -22.5t21.5 -33.5t8 -40q0 -22 -8 -41t-21.5 -33.5t-32 -22.5t-39.5 -8t-39.5 8t-32 22.5t-21.5 33.5t-8 41zM171 652q0 -25 14 -41.5t35 -16.5q20 0 34 16.5t14 41.5q0 24 -14 40.5t-34 16.5q-21 0 -35 -16.5
t-14 -40.5z" />
    <glyph glyph-name="tilde" unicode="&#x2dc;" horiz-adv-x="440" 
d="M375 640q-26 -23 -49.5 -38t-53.5 -15q-19 0 -32.5 6.5t-25.5 15t-23 15t-26 6.5q-17 0 -31 -10.5t-37 -28.5l-33 53q26 22 49 36t52 14q20 0 34 -6.5t25 -14.5t22 -14.5t26 -6.5q17 0 31.5 9.5t36.5 29.5l35 -51v0z" />
    <glyph glyph-name="endash" unicode="&#x2013;" horiz-adv-x="500" 
d="M35 314h430v-71h-430v71z" />
    <glyph glyph-name="emdash" unicode="&#x2014;" horiz-adv-x="1000" 
d="M35 314h930v-71h-930v71z" />
    <glyph glyph-name="quoteleft" unicode="&#x2018;" horiz-adv-x="223" 
d="M41 471q-1 5 -1 10.5v9.5q0 29 7.5 60.5t20.5 62t31 58.5t39 51l51 -10q-23 -48 -39 -103t-16 -102v-11.5t1 -11.5l-94 -14v0z" />
    <glyph glyph-name="quoteright" unicode="&#x2019;" horiz-adv-x="223" 
d="M184 723q1 -4 1 -9.5v-9.5q0 -29 -7.5 -60.5t-20.5 -62t-31 -59t-39 -51.5l-51 11q23 47 39 102.5t16 101.5v11.5t-1 11.5z" />
    <glyph glyph-name="quotesinglbase" unicode="&#x201a;" horiz-adv-x="223" 
d="M184 139q1 -4 1 -10v-10q0 -29 -7.5 -60t-20.5 -62t-31 -59t-39 -51l-51 11q23 47 39 102t16 102v11.5t-1 11.5l94 14v0z" />
    <glyph glyph-name="quotedblleft" unicode="&#x201c;" horiz-adv-x="393" 
d="M211 471q-1 5 -1 10.5v9.5q0 29 7.5 60.5t20.5 62t31 58.5t39 51l51 -10q-23 -48 -39 -103t-16 -102v-11.5t1 -11.5zM41 471q-1 5 -1 10.5v9.5q0 29 7.5 60.5t20.5 62t31 58.5t39 51l51 -10q-23 -48 -39 -103t-16 -102v-11.5t1 -11.5z" />
    <glyph glyph-name="quotedblright" unicode="&#x201d;" horiz-adv-x="393" 
d="M184 723q1 -4 1 -9.5v-9.5q0 -29 -7.5 -60.5t-20.5 -62t-31 -59t-39 -51.5l-51 11q23 47 39 102.5t16 101.5v11.5t-1 11.5zM354 723q1 -4 1 -9.5v-9.5q0 -29 -7.5 -60.5t-20.5 -62t-31 -59t-39 -51.5l-51 11q23 47 39 102.5t16 101.5v11.5t-1 11.5z" />
    <glyph glyph-name="quotedblbase" unicode="&#x201e;" horiz-adv-x="393" 
d="M184 139q1 -4 1 -10v-10q0 -29 -7.5 -60t-20.5 -62t-31 -59t-39 -51l-51 11q23 47 39 102t16 102v11.5t-1 11.5zM354 139q1 -4 1 -10v-10q0 -29 -7.5 -60t-20.5 -62t-31 -59t-39 -51l-51 11q23 47 39 102t16 102v11.5t-1 11.5z" />
    <glyph glyph-name="dagger" unicode="&#x2020;" horiz-adv-x="444" 
d="M25 496h153v189h87v-189h154v-77h-154v-469h-87v471h-153v75z" />
    <glyph glyph-name="daggerdbl" unicode="&#x2021;" horiz-adv-x="444" 
d="M25 496h153v189h87v-189h154v-77h-154v-230h154v-77h-154v-162h-87v162h-153v77h153v232h-153v75z" />
    <glyph glyph-name="bullet" unicode="&#x2022;" horiz-adv-x="305" 
d="M260 316q0 -23 -8 -43.5t-22 -36.5t-33 -25.5t-41 -9.5q-24 0 -44.5 9.5t-35 25.5t-23 36.5t-8.5 43.5t8.5 43t23 35t35 23.5t44.5 8.5q44 0 74 -31.5t30 -78.5z" />
    <glyph glyph-name="ellipsis" unicode="&#x2026;" horiz-adv-x="1000" 
d="M101 58q0 29 19 49t47 20t47 -20t19 -49t-19 -49t-47 -20t-47 20t-19 49zM434 58q0 29 19 49t47 20t47 -20t19 -49t-19 -49t-47 -20t-47 20t-19 49zM767 58q0 29 19 49t47 20t47 -20t19 -49t-19 -49t-47 -20t-47 20t-19 49z" />
    <glyph glyph-name="perthousand" unicode="&#x2030;" horiz-adv-x="1152" 
d="M321 463q0 -97 -36 -149.5t-111 -52.5t-111 52.5t-36 149.5q0 96 36.5 149t109.5 53q75 0 111.5 -53t36.5 -149zM245 463q0 66 -17 102t-54 36q-36 0 -53 -36t-17 -102q0 -67 16.5 -102.5t53.5 -35.5q38 0 54.5 35.5t16.5 102.5zM263 -11h-69l337 679h70zM776 194
q0 -97 -36 -149.5t-111 -52.5t-111 52.5t-36 149.5q0 96 36.5 149t109.5 53q75 0 111.5 -53t36.5 -149zM700 194q0 66 -17 102t-54 36q-36 0 -53 -36t-17 -102q0 -67 16.5 -102.5t53.5 -35.5q38 0 54.5 35.5t16.5 102.5zM1125 194q0 -97 -36 -149.5t-111 -52.5t-111 52.5
t-36 149.5q0 96 36.5 149t109.5 53q75 0 111.5 -53t36.5 -149zM1049 194q0 66 -17 102t-54 36q-36 0 -53 -36t-17 -102q0 -67 16.5 -102.5t53.5 -35.5q38 0 54.5 35.5t16.5 102.5z" />
    <glyph glyph-name="guilsinglleft" unicode="&#x2039;" horiz-adv-x="287" 
d="M148 70l-117 208l117 208h98l-119 -206v-3l119 -207h-98z" />
    <glyph glyph-name="guilsinglright" unicode="&#x203a;" horiz-adv-x="287" 
d="M41 70l119 207v3l-119 206h98l118 -208l-118 -208h-98z" />
    <glyph glyph-name="Euro" unicode="&#x20ac;" 
d="M18 417h63q10 56 33 102t57.5 78.5t79.5 50.5t99 18q49 0 79.5 -7t61.5 -18v-137h-69l-14 66q-24 9 -62 9q-30 0 -56.5 -12.5t-47 -34t-35 -51.5t-21.5 -64h211v-55h-221q-1 -8 -1 -16v-16v-21h191v-54h-183q6 -38 20.5 -70.5t35.5 -56t48.5 -37t60.5 -13.5q70 0 140 22
l23 -82q-33 -10 -70.5 -18.5t-90.5 -8.5q-56 0 -102 18.5t-81 53t-57.5 83.5t-30.5 109h-61v54h56q-1 8 -1 13.5v10.5v13t2 16h-57v55z" />
    <glyph glyph-name="trademark" unicode="&#x2122;" horiz-adv-x="694" 
d="M170 627v-205l44 -10v-32h-148v32l44 10v205h-55l-8 -49h-37v102h261v-102h-37l-8 49h-56zM520 380v32l44 10v82q0 14 0.5 34.5t2.5 35.5h-3q-5 -11 -15.5 -27.5t-19.5 -28.5l-37 -55h-25l-36 54q-10 14 -19 29.5t-16 29.5h-2q2 -15 2.5 -34.5t0.5 -38.5v-81l42 -10v-32
h-147v32l45 10v216l-45 10v32h99l44 -70q13 -20 26 -42.5t18 -34.5h2q5 11 17.5 33t26.5 44l44 70h98v-32l-43 -10v-216l43 -10v-32h-147z" />
    <glyph glyph-name="uniE000" unicode="&#xe000;" horiz-adv-x="440" 
d="M201 744l-167 114h124l127 -114h-84z" />
    <glyph glyph-name="uniE002" unicode="&#xe002;" horiz-adv-x="440" 
d="M161 744l127 114h124l-167 -114h-84z" />
    <glyph glyph-name="uniE004" unicode="&#xe004;" horiz-adv-x="440" 
d="M48 744l131 114h79l133 -114h-96l-75 73h-2l-73 -73h-97z" />
    <glyph glyph-name="uniE006" unicode="&#xe006;" horiz-adv-x="440" 
d="M145 858l73 -74h2l75 74h96l-133 -114h-79l-131 114h97z" />
    <glyph glyph-name="uniE009" unicode="&#xe009;" horiz-adv-x="440" 
d="M392 796q-29 -21 -54.5 -34.5t-59.5 -13.5q-21 0 -36.5 6t-28 13.5t-25 13.5t-28.5 6q-20 0 -35.5 -9.5t-41.5 -26.5l-35 51q29 20 54 33.5t58 13.5q22 0 37 -6.5t27.5 -14t24.5 -13.5t29 -6q19 0 35 9.5t41 26.5l38 -49v0z" />
    <glyph glyph-name="uniE00B" unicode="&#xe00b;" horiz-adv-x="440" 
d="M46 799q0 23 17.5 40t42.5 17q26 0 43.5 -17t17.5 -40t-17.5 -40t-43.5 -17q-25 0 -42.5 17t-17.5 40zM273 799q0 23 17.5 40t42.5 17q26 0 43.5 -17t17.5 -40t-17.5 -40t-43.5 -17q-25 0 -42.5 17t-17.5 40z" />
    <glyph glyph-name="uniE011" unicode="&#xe011;" horiz-adv-x="440" 
d="M119 813q0 21 8 40t21.5 33.5t32 22.5t39.5 8t39.5 -8t32 -22.5t21.5 -33.5t8 -40q0 -22 -8 -41t-21.5 -33.5t-32 -22.5t-39.5 -8t-39.5 8t-32 22.5t-21.5 33.5t-8 41zM171 813q0 -25 14 -41.5t35 -16.5q20 0 34 16.5t14 41.5q0 24 -14 40.5t-34 16.5q-21 0 -35 -16.5
t-14 -40.5z" />
    </font>
</defs>
</svg>
